<svg version="1.1" id="Layer_1" xmlns="http://www.w3.org/2000/svg" xmlns:xlink="http://www.w3.org/1999/xlink" x="0px" y="0px"
	 width="100%" viewBox="0 0 200 200" enable-background="new 0 0 200 200" xml:space="preserve">
<path fill="#FCFCFE" opacity="1.000000" stroke="none" 
	d="
M1.000000,98.000000 
	C1.000000,65.333344 1.000000,33.166683 1.000000,1.000017 
	C67.666641,1.000011 134.333282,1.000011 200.999939,1.000006 
	C200.999969,67.666626 200.999969,134.333252 200.999985,200.999908 
	C134.333389,200.999939 67.666779,200.999939 1.000083,200.999969 
	C1.000000,166.833328 1.000000,132.666672 1.000000,98.000000 
M18.032635,161.677582 
	C18.354815,161.774811 18.676992,161.872040 19.347357,162.225037 
	C19.347357,162.225037 19.778145,162.257858 20.126772,162.720230 
	C20.671486,162.895981 21.216200,163.071732 22.039934,163.687241 
	C22.362968,163.788589 22.686005,163.889923 23.316008,164.492584 
	C23.861382,164.679230 24.406754,164.865875 25.256989,165.553909 
	C25.801277,165.744095 26.345566,165.934280 27.273815,166.664474 
	C28.637354,167.329407 30.000895,167.994339 31.765554,169.227127 
	C38.143829,172.565933 44.522102,175.904739 51.226261,179.774658 
	C52.363331,180.223419 53.500397,180.672165 55.028530,181.649185 
	C55.629379,181.886047 56.230228,182.122894 56.861328,182.194809 
	C56.861328,182.194809 56.698898,182.236542 56.927147,182.746292 
	C57.275429,182.846237 57.623707,182.946182 58.003792,183.004959 
	C58.003792,183.004959 57.964355,183.036163 58.322216,183.511398 
	C58.865673,183.721954 59.409130,183.932526 59.958782,184.056061 
	C59.958782,184.056061 59.880257,184.094055 60.204300,184.617950 
	C60.772114,184.824005 61.339928,185.030075 61.912273,185.131027 
	C61.912273,185.131027 61.816059,185.173569 62.149864,185.714127 
	C63.105663,186.137711 64.061462,186.561295 65.357368,187.486816 
	C66.102684,187.790466 66.848000,188.094101 67.922867,188.806625 
	C68.254303,188.899796 68.585739,188.992981 69.228867,189.585632 
	C69.777359,189.770416 70.325844,189.955215 71.180679,190.640915 
	C71.727577,190.827347 72.274483,191.013779 73.230942,191.756317 
	C75.513756,193.072128 77.658165,194.797958 80.106201,195.624298 
	C86.580391,197.809631 93.195206,199.712570 99.020096,194.042526 
	C99.020096,194.042526 99.046967,194.127380 99.725037,194.099548 
	C100.428734,193.731415 101.132439,193.363297 102.282303,192.406677 
	C108.237328,189.085266 114.192360,185.763855 120.882301,182.240494 
	C123.654938,180.896973 126.427574,179.553452 129.051987,178.111420 
	C129.051987,178.111420 129.157715,178.254578 129.707291,178.086685 
	C129.876923,177.747803 130.046555,177.408920 130.610794,177.094757 
	C130.610794,177.094757 130.990845,176.985718 131.721420,176.947113 
	C140.750763,173.187119 148.083969,168.061218 148.075180,156.906418 
	C148.056732,133.492889 148.118698,110.078995 147.972733,86.666344 
	C147.958527,84.388313 146.724640,82.117889 146.035400,79.408676 
	C146.035400,79.408676 145.897339,78.995331 145.982956,78.382858 
	C145.699890,78.101959 145.416840,77.821068 145.286194,77.274719 
	C145.286194,77.274719 145.118271,77.018784 145.205414,76.419533 
	C144.927704,76.151367 144.649994,75.883209 144.437195,75.589043 
	C144.437195,75.589043 144.443192,75.519386 144.220749,74.948105 
	C143.324066,74.153320 142.427399,73.358536 141.485977,72.749146 
	C141.485977,72.749146 141.463470,72.559753 141.311234,72.053169 
	C140.873215,71.777206 140.435196,71.501244 139.831070,70.924454 
	C139.831070,70.924454 139.489655,70.885437 139.153122,70.367691 
	C138.773575,70.237579 138.394043,70.107460 138.000610,70.000610 
	C138.000610,70.000610 138.019943,69.979805 137.673874,69.496674 
	C137.126572,69.289841 136.579285,69.083008 135.646790,68.302330 
	C132.848358,67.158844 130.049911,66.015358 127.070183,64.177963 
	C122.410713,61.750397 117.751251,59.322830 112.792976,56.244141 
	C109.278069,54.370674 105.763161,52.497208 102.162842,50.726311 
	C102.162842,50.726311 102.295525,50.740837 102.075188,50.231899 
	C101.732841,50.120064 101.390488,50.008232 101.015602,49.984730 
	C101.015602,49.984730 101.088684,49.925400 100.765099,49.404739 
	C100.199020,49.195923 99.632942,48.987103 98.652039,48.234470 
	C95.470467,46.787609 92.288902,45.340748 89.064812,43.940125 
	C89.064812,43.940125 89.126991,43.939930 88.952103,43.376972 
	C88.634552,43.257851 88.316994,43.138729 87.606415,42.917362 
	C87.606415,42.917362 87.200638,42.933739 86.985359,42.434185 
	C86.672844,42.270855 86.360329,42.107525 85.999161,41.989151 
	C85.999161,41.989151 86.046432,41.936543 85.823715,41.357998 
	C85.280502,41.120102 84.737289,40.882210 84.101097,40.753471 
	C84.101097,40.753471 84.239616,40.716423 83.931709,40.187325 
	C83.364159,39.987679 82.796616,39.788033 82.174210,39.726089 
	C82.174210,39.726089 82.316933,39.686066 82.068680,39.183983 
	C81.717453,39.155933 81.366219,39.127884 80.355377,38.809551 
	C77.251312,37.187637 74.147255,35.565723 70.997581,33.996265 
	C70.997581,33.996265 71.051506,33.954254 70.784210,33.354889 
	C70.180237,33.209801 69.576271,33.064713 68.375000,32.783749 
	C67.970154,32.835079 67.565315,32.886406 66.730537,32.201042 
	C64.493225,32.171024 62.255913,32.141006 59.259972,31.883312 
	C53.787590,34.545994 48.315205,37.208679 42.954353,39.877312 
	C42.954353,39.877312 42.871658,39.802238 42.232029,39.875164 
	C41.506054,40.324265 40.780079,40.773365 39.377182,41.338268 
	C31.053896,45.888992 22.734762,50.447334 14.406054,54.988113 
	C7.303906,58.860172 3.907299,64.832664 3.922728,72.913765 
	C3.966599,95.890739 3.816357,118.869118 4.058518,141.843597 
	C4.094879,145.293243 5.826532,148.724991 6.848473,152.678558 
	C7.059273,152.946625 7.270073,153.214691 7.725630,153.983322 
	C8.143978,154.327576 8.562325,154.671844 9.205198,155.654953 
	C11.643227,157.293930 14.081255,158.932907 16.873158,160.911163 
	C17.157862,161.092529 17.468893,161.189438 18.032635,161.677582 
M103.018822,35.621548 
	C103.344078,35.731590 103.669334,35.841633 104.005890,36.010239 
	C104.005890,36.010239 104.060974,35.987366 104.367943,36.476444 
	C104.904709,36.653709 105.441483,36.830978 106.285240,37.483250 
	C106.980759,37.691559 107.676270,37.899872 108.710228,38.688168 
	C109.116074,38.862545 109.521919,39.036922 109.895943,39.104771 
	C109.895943,39.104771 109.807602,39.172272 110.098648,39.739319 
	C111.076271,40.130711 112.053902,40.522102 113.047043,40.987225 
	C113.047043,40.987225 113.114563,40.953800 113.523148,41.486473 
	C115.586922,42.467365 117.650688,43.448257 119.815887,44.330833 
	C119.815887,44.330833 119.677963,44.300343 119.911491,44.803322 
	C120.258850,44.906326 120.606201,45.009331 120.931549,45.052654 
	C120.931549,45.052654 120.895485,45.106346 121.309113,45.653915 
	C127.865997,49.118114 134.422882,52.582310 141.411453,56.575806 
	C144.288879,58.309563 147.166290,60.043316 150.354980,62.144966 
	C150.354980,62.144966 150.824112,62.255169 150.845444,62.268009 
	C150.845444,62.268009 150.803711,62.278816 151.102005,62.870865 
	C154.036621,66.928780 156.971237,70.986687 159.914719,75.748238 
	C160.226898,76.361237 160.539078,76.974243 160.719055,77.776176 
	C160.719055,77.776176 160.847580,77.967621 160.822647,78.858215 
	C161.146835,84.305389 161.723572,89.751312 161.750748,95.199966 
	C161.858749,116.853790 161.795197,138.508484 161.795197,160.818207 
	C163.469269,159.765350 164.796921,158.930374 166.047623,158.057297 
	C166.047623,158.057297 166.046387,158.143158 166.662903,158.109497 
	C167.156021,157.764465 167.649155,157.419449 168.768326,156.804077 
	C171.196915,155.251511 173.625504,153.698929 176.797180,152.073639 
	C182.243286,148.523422 187.689392,144.973221 193.674789,141.072342 
	C193.960022,140.516006 194.245270,139.959686 194.483398,139.336227 
	C194.483398,139.336227 194.552536,139.292160 194.996262,138.911469 
	C195.138657,138.348160 195.281036,137.784836 195.314331,137.124023 
	C195.314331,137.124023 195.346237,137.266815 195.814880,136.900055 
	C195.963242,135.939377 196.111588,134.978714 196.657715,133.414581 
	C196.686493,132.938187 196.715271,132.461777 196.966354,131.071335 
	C196.957840,121.706329 197.000168,112.340775 196.900497,102.976738 
	C196.879028,100.959114 196.345444,98.946938 196.008560,96.028145 
	C196.021912,92.707550 196.035278,89.386955 196.747574,85.558670 
	C196.740753,76.387794 196.733917,67.216919 196.812286,57.307251 
	C194.265137,53.145123 191.718002,48.982990 188.839844,44.231453 
	C186.643005,43.067123 184.446182,41.902798 181.873901,40.230469 
	C180.927750,39.807602 179.981598,39.384739 178.610947,38.422237 
	C173.159241,35.570721 167.707535,32.719204 161.813416,29.322092 
	C155.290726,25.835703 148.768021,22.349316 141.817902,18.312325 
	C139.249542,17.174984 136.681183,16.037642 134.068329,14.921881 
	C134.068329,14.921881 134.111710,14.937346 133.926498,14.416413 
	C133.620773,14.306637 133.315048,14.196860 132.597473,13.957744 
	C132.597473,13.957744 132.166168,13.940390 131.960632,13.397879 
	C131.640656,13.277766 131.320694,13.157654 130.609879,12.917872 
	C130.609879,12.917872 130.201401,12.932424 129.985901,12.441352 
	C129.664337,12.345298 129.342789,12.249244 128.611130,11.977337 
	C128.611130,11.977337 128.166626,11.938134 127.875084,11.340575 
	C126.933853,10.873475 125.992615,10.406374 124.998093,9.996239 
	C124.998093,9.996239 125.054756,9.945272 124.810532,9.286706 
	C123.551804,8.820765 122.293083,8.354824 120.884323,7.371855 
	C120.587723,7.273749 120.291130,7.175644 119.570549,6.958545 
	C119.570549,6.958545 119.130341,6.946480 118.710052,6.269721 
	C115.158585,5.908525 111.607117,5.547329 107.362701,5.134257 
	C105.903664,5.782664 104.444633,6.431071 102.266624,6.973063 
	C93.849091,11.558852 85.431557,16.144642 76.258751,21.141895 
	C82.978966,24.685854 88.531441,27.613995 94.318596,30.765451 
	C94.318596,30.765451 94.638779,30.814777 94.985031,31.220741 
	C95.652214,31.486273 96.319397,31.751802 97.000000,31.999847 
	C97.000000,31.999847 96.983604,32.015247 97.367935,32.539047 
	C98.547241,33.060436 99.726547,33.581829 100.920723,34.052921 
	C100.920723,34.052921 100.922157,34.093620 101.221115,34.618271 
	C101.781342,34.817253 102.341568,35.016235 102.919785,35.109035 
	C102.919785,35.109035 102.814529,35.131832 103.018822,35.621548 
z"/>
<path fill="#385CEC" opacity="1.000000" stroke="none" 
	d="
M6.773959,152.165024 
	C5.826532,148.724991 4.094879,145.293243 4.058518,141.843597 
	C3.816357,118.869118 3.966599,95.890739 3.922728,72.913765 
	C3.907299,64.832664 7.303906,58.860172 14.406054,54.988113 
	C22.734762,50.447334 31.053896,45.888992 39.949764,41.498886 
	C41.305450,41.040417 42.088554,40.421329 42.871658,39.802238 
	C42.871658,39.802238 42.954353,39.877312 43.319580,39.916481 
	C44.665142,39.850708 45.658272,39.594822 46.622780,39.676571 
	C48.032417,39.796051 49.421516,40.157833 50.819366,40.416336 
	C49.817810,41.283558 48.859604,42.208836 47.800823,42.999420 
	C46.970894,43.619114 46.016487,44.072090 44.623707,44.888523 
	C47.091541,46.717663 49.031773,48.155750 50.458462,49.213203 
	C47.318264,52.205479 44.593678,54.801720 41.727169,57.368675 
	C41.585247,57.339394 41.379616,57.135155 40.984245,57.095901 
	C40.060368,57.036701 39.531860,57.016750 38.959770,56.628933 
	C37.328350,52.353622 34.168129,52.146141 31.134462,53.711445 
	C28.386253,55.129459 24.764967,56.531727 26.474169,61.190899 
	C26.995914,62.613144 26.779572,64.462738 26.439201,66.015320 
	C25.416826,70.678841 24.149654,75.288239 23.010323,79.926697 
	C22.069071,83.758743 21.158258,87.598465 20.262865,91.441521 
	C19.486891,94.772003 18.669090,98.095886 18.014874,101.450974 
	C16.532530,109.053047 16.445126,117.275696 13.295363,124.093239 
	C10.796471,129.501999 9.243296,134.792160 8.475554,140.440247 
	C8.254117,142.069290 9.741032,143.921326 10.394501,145.689697 
	C10.480639,145.922791 10.267521,146.266479 10.140853,146.763626 
	C8.859344,146.763626 7.531471,146.763626 5.810338,146.763626 
	C6.310359,148.803482 6.697779,150.383972 7.010354,152.019196 
	C6.935510,152.073944 6.773960,152.165024 6.773959,152.165024 
z"/>
<path fill="#472BD7" opacity="1.000000" stroke="none" 
	d="
M139.489655,70.885437 
	C139.489655,70.885437 139.831070,70.924454 139.962616,71.371170 
	C140.550598,72.065178 141.007034,72.312469 141.463470,72.559753 
	C141.463470,72.559753 141.485977,72.749146 141.338547,73.067574 
	C141.127625,74.257133 141.064117,75.128258 140.735077,76.214020 
	C137.877136,83.447617 135.024612,90.384094 132.765381,97.508705 
	C130.499191,104.655289 128.670227,111.952690 126.930351,119.250900 
	C124.801018,128.182739 122.984253,137.188766 120.993385,146.154068 
	C119.390373,153.372864 117.935013,160.637100 115.920067,167.741043 
	C115.519112,169.154648 112.878159,169.932922 111.201958,170.540207 
	C111.187241,164.361618 111.240692,158.646988 111.527618,152.600357 
	C111.609871,144.869278 111.458633,137.470200 111.217773,129.607788 
	C111.199028,124.099419 111.269913,119.054390 111.709259,113.998550 
	C112.977135,113.380020 114.493523,112.921997 114.682724,112.142014 
	C117.229813,101.642151 119.423004,91.054718 122.070549,80.581665 
	C123.418564,75.249275 125.501015,70.102531 127.251480,64.871872 
	C130.049911,66.015358 132.848358,67.158844 135.985992,68.858231 
	C136.890121,69.602684 137.455032,69.791245 138.019943,69.979805 
	C138.019943,69.979805 138.000610,70.000610 138.179794,70.239853 
	C138.735870,70.614540 139.112762,70.749992 139.489655,70.885437 
z"/>
<path fill="#4927D5" opacity="1.000000" stroke="none" 
	d="
M111.270126,171.004181 
	C112.878159,169.932922 115.519112,169.154648 115.920067,167.741043 
	C117.935013,160.637100 119.390373,153.372864 120.993385,146.154068 
	C122.984253,137.188766 124.801018,128.182739 126.930351,119.250900 
	C128.670227,111.952690 130.499191,104.655289 132.765381,97.508705 
	C135.024612,90.384094 137.877136,83.447617 141.170425,76.209305 
	C142.728607,75.833099 143.585892,75.676247 144.443192,75.519386 
	C144.443192,75.519386 144.437195,75.589043 144.376907,75.899231 
	C144.583832,76.479218 144.851059,76.749001 145.118271,77.018784 
	C145.118271,77.018784 145.286194,77.274719 145.240784,77.694672 
	C145.429367,78.408188 145.663361,78.701759 145.897339,78.995331 
	C145.897339,78.995331 146.035400,79.408676 146.027649,80.020523 
	C146.005646,81.421371 145.991409,82.210381 145.630493,83.055542 
	C144.724411,83.684738 143.849747,84.166466 143.653351,84.844620 
	C141.046906,93.844452 138.429047,102.843971 136.058456,111.907501 
	C135.229614,115.076393 135.359482,118.494789 134.542984,121.668419 
	C132.711716,128.786469 130.447021,135.792282 128.572952,142.900269 
	C126.631721,150.262985 124.693428,157.643631 123.237434,165.110718 
	C122.352333,169.649979 122.382607,174.367752 121.799843,179.285934 
	C121.114464,180.525177 120.630928,181.483810 120.147385,182.442444 
	C114.192360,185.763855 108.237328,189.085266 101.731262,192.703369 
	C100.469139,193.375854 99.758057,193.751617 99.046967,194.127380 
	C99.046967,194.127380 99.020096,194.042526 98.657349,194.035492 
	C95.347450,194.101547 94.487389,192.947571 95.544304,190.046326 
	C96.591621,187.171371 97.024094,184.072937 98.064819,181.194962 
	C99.581543,177.000687 101.401276,172.915985 103.438324,168.850067 
	C105.463394,169.940613 107.074722,171.119293 108.859924,171.900757 
	C109.424347,172.147827 110.453606,171.333023 111.270126,171.004181 
z"/>
<path fill="#4A24D5" opacity="1.000000" stroke="none" 
	d="
M122.001678,179.005310 
	C122.382607,174.367752 122.352333,169.649979 123.237434,165.110718 
	C124.693428,157.643631 126.631721,150.262985 128.572952,142.900269 
	C130.447021,135.792282 132.711716,128.786469 134.542984,121.668419 
	C135.359482,118.494789 135.229614,115.076393 136.058456,111.907501 
	C138.429047,102.843971 141.046906,93.844452 143.653351,84.844620 
	C143.849747,84.166466 144.724411,83.684738 145.637711,83.524231 
	C145.993561,97.218262 146.007980,110.499771 145.979904,123.781204 
	C145.976791,125.253647 145.968506,126.795700 145.557510,128.185684 
	C143.724365,134.385406 139.419266,140.173813 142.897827,147.190063 
	C143.413376,148.229919 142.810043,149.798248 142.816818,151.121613 
	C142.836182,154.904968 142.903137,158.688095 142.956467,162.869904 
	C142.642075,162.923843 141.063995,163.194626 139.544922,163.455292 
	C139.669662,165.624557 139.778961,167.525040 139.857025,168.882812 
	C136.209198,170.694992 133.185547,172.197083 130.269501,173.645737 
	C130.575333,175.061813 130.783096,176.023773 130.990845,176.985718 
	C130.990845,176.985718 130.610794,177.094757 130.143982,177.181885 
	C129.504028,177.597534 129.330872,177.926056 129.157715,178.254578 
	C129.157715,178.254578 129.051987,178.111420 128.737000,178.094360 
	C126.281898,178.386658 124.141785,178.695984 122.001678,179.005310 
M134.173889,167.665146 
	C134.146576,166.882278 134.119263,166.099396 134.091934,165.316544 
	C133.527176,165.465073 132.962418,165.613602 132.397659,165.762115 
	C132.764557,166.448486 133.131454,167.134872 134.173889,167.665146 
z"/>
<path fill="#4927D3" opacity="1.000000" stroke="none" 
	d="
M189.170853,44.820858 
	C191.718002,48.982990 194.265137,53.145123 196.562012,57.913223 
	C196.200424,59.346512 196.089096,60.173832 195.590881,61.007263 
	C193.803482,62.714600 191.935272,64.220444 191.122086,66.167030 
	C190.129105,68.544029 190.089798,71.306129 189.518829,73.875183 
	C187.706192,82.030769 185.800156,90.165665 184.003952,98.324799 
	C182.661972,104.420647 181.656601,110.598679 180.107254,116.639030 
	C177.256241,127.754150 174.115173,138.794876 170.696518,151.327408 
	C173.709488,150.572937 174.854736,150.286148 176.003448,150.357330 
	C176.022644,151.192337 176.038361,151.669342 176.054092,152.146362 
	C173.625504,153.698929 171.196915,155.251511 168.131042,156.928864 
	C167.011292,157.416824 166.528839,157.779984 166.046387,158.143158 
	C166.046387,158.143158 166.047623,158.057297 165.670135,158.024902 
	C160.688797,155.963440 164.065384,151.922958 163.409988,148.989960 
	C164.865005,147.974045 166.523849,147.146210 166.902893,145.922089 
	C168.517075,140.709229 170.197342,135.629318 170.850418,129.996506 
	C171.901642,120.929764 175.250732,112.144699 177.364532,103.178276 
	C178.190308,99.675545 177.966263,95.923935 178.805557,92.426086 
	C180.653381,84.725098 183.195709,77.182472 184.852936,69.446327 
	C186.576065,61.402637 187.590668,53.207169 188.979370,45.014107 
	C189.043655,44.950138 189.170853,44.820858 189.170853,44.820858 
z"/>
<path fill="#4533DA" opacity="1.000000" stroke="none" 
	d="
M160.847580,77.967621 
	C160.847580,77.967621 160.719055,77.776176 160.811951,77.309341 
	C160.571854,76.243202 160.238846,75.643906 159.905853,75.044601 
	C156.971237,70.986687 154.036621,66.928780 151.362793,62.494492 
	C153.525803,62.324123 155.428040,62.530125 157.638260,62.769482 
	C160.060684,54.278439 159.514862,44.997181 165.655502,37.039078 
	C164.744949,35.118347 163.500397,32.493015 162.255829,29.867687 
	C167.707535,32.719204 173.159241,35.570721 178.653717,38.791443 
	C178.626907,39.270344 178.473007,39.436905 178.502090,39.480053 
	C178.640488,39.685249 178.828705,39.856850 178.993683,40.410812 
	C178.955139,41.111481 179.016434,41.490143 178.875443,41.765053 
	C172.083282,55.008709 170.209000,69.543343 167.534180,83.898445 
	C167.238098,85.487381 164.600388,86.640007 163.035828,87.564819 
	C162.297852,84.078979 161.572723,81.023300 160.847580,77.967621 
z"/>
<path fill="#423BDE" opacity="1.000000" stroke="none" 
	d="
M162.034622,29.594891 
	C163.500397,32.493015 164.744949,35.118347 165.655502,37.039078 
	C159.514862,44.997181 160.060684,54.278439 157.638260,62.769482 
	C155.428040,62.530125 153.525803,62.324123 151.213638,62.198467 
	C150.803711,62.278816 150.845444,62.268009 150.840759,62.071621 
	C150.571960,61.842510 150.307846,61.809788 150.043716,61.777069 
	C147.166290,60.043316 144.288879,58.309563 141.351471,55.949657 
	C142.615753,49.439072 143.989777,43.565205 145.243256,37.665730 
	C145.867584,34.727303 145.653122,31.434563 146.934967,28.857670 
	C148.448135,25.815748 147.878540,24.560452 145.199905,22.923935 
	C143.948715,22.159515 140.432831,22.162842 142.245331,18.862926 
	C148.768021,22.349316 155.290726,25.835703 162.034622,29.594891 
z"/>
<path fill="#3F45E1" opacity="1.000000" stroke="none" 
	d="
M142.031616,18.587626 
	C140.432831,22.162842 143.948715,22.159515 145.199905,22.923935 
	C147.878540,24.560452 148.448135,25.815748 146.934967,28.857670 
	C145.653122,31.434563 145.867584,34.727303 145.243256,37.665730 
	C143.989777,43.565205 142.615753,49.439072 141.135620,55.685005 
	C134.422882,52.582310 127.865997,49.118114 121.494492,45.349243 
	C123.939987,45.044571 126.200111,45.044571 128.029343,45.044571 
	C127.429955,42.099072 125.983597,38.332584 126.681641,37.881031 
	C131.314667,34.883968 129.965927,30.890680 129.517319,26.844418 
	C129.412582,25.899738 130.265045,24.854980 130.656174,23.848135 
	C131.813995,20.867704 132.961365,17.883209 134.112823,14.900301 
	C136.681183,16.037642 139.249542,17.174984 142.031616,18.587626 
z"/>
<path fill="#3B4DE6" opacity="1.000000" stroke="none" 
	d="
M67.160469,32.937737 
	C67.565315,32.886406 67.970154,32.835079 68.843567,33.112534 
	C69.891930,33.612301 70.471718,33.783276 71.051506,33.954254 
	C71.051506,33.954254 70.997581,33.996265 71.058411,34.317169 
	C72.573334,35.868755 73.957932,37.195763 75.498215,38.306976 
	C77.675972,39.878086 78.936020,41.456707 76.622726,43.918560 
	C75.970619,44.612545 75.343231,45.506092 75.130844,46.408451 
	C73.707550,52.455814 72.535492,58.565884 70.964073,64.572456 
	C70.538887,66.197662 69.018021,67.536232 67.580597,69.004669 
	C66.040260,69.060524 64.919403,69.118080 63.845081,69.153801 
	C63.891617,69.131973 63.884464,69.234520 63.792038,68.958481 
	C63.353291,68.556831 63.006977,68.431213 62.745773,68.305435 
	C62.830883,68.305275 62.743828,68.451553 62.676414,68.099312 
	C61.733807,67.509987 60.858612,67.272911 59.974915,67.034149 
	C59.966415,67.032463 59.959656,67.051170 59.802090,66.790634 
	C59.072586,66.382065 58.500645,66.234024 57.949112,66.050735 
	C57.969513,66.015480 57.937935,66.081261 57.830631,65.837219 
	C57.410973,65.445824 57.098614,65.298470 56.775566,65.175247 
	C56.764877,65.199379 56.715351,65.217766 56.702408,64.923691 
	C56.458492,64.087318 56.227516,63.545006 55.998272,63.001350 
	C56.000000,63.000000 56.002682,62.996540 56.271194,62.767754 
	C56.610378,61.907524 56.957680,61.124260 56.707706,60.668789 
	C54.804001,57.200050 53.910427,54.036659 57.773804,51.084171 
	C58.396069,50.608616 58.264126,48.260071 57.672749,47.250851 
	C55.985416,44.371342 55.225994,42.256329 58.506790,39.632877 
	C60.090317,38.366631 60.218365,35.280205 61.444054,33.011841 
	C63.641930,32.983067 65.401199,32.960400 67.160469,32.937737 
z"/>
<path fill="#423CDD" opacity="1.000000" stroke="none" 
	d="
M54.637466,181.120911 
	C53.500397,180.672165 52.363331,180.223419 51.140915,179.135925 
	C52.997608,175.926346 55.796658,173.621979 56.696728,170.727158 
	C58.380016,165.313339 58.928612,159.550598 60.016495,153.946060 
	C60.530930,151.295822 62.534134,148.560944 59.340256,146.253571 
	C59.701931,145.754593 60.063599,145.255615 60.759247,144.814911 
	C64.065323,146.577347 67.037415,148.281479 70.060341,150.335297 
	C71.490379,151.426743 72.869591,152.168503 74.450943,152.918549 
	C74.653076,152.926834 75.002029,153.131607 75.002258,153.348068 
	C75.002480,153.564529 75.006386,153.997437 75.009888,154.376404 
	C73.739990,161.360001 72.471603,167.965607 71.188713,174.568375 
	C70.948212,175.806198 70.404526,177.038284 70.432297,178.263245 
	C70.480606,180.393326 70.865211,182.515762 71.068817,184.292389 
	C68.283226,184.618607 66.639656,184.811096 64.598450,185.003891 
	C63.405891,185.060669 62.610973,185.117111 61.816059,185.173569 
	C61.816059,185.173569 61.912273,185.131027 61.784065,184.885376 
	C61.063988,184.457825 60.472122,184.275940 59.880257,184.094055 
	C59.880257,184.094055 59.958782,184.056061 59.813293,183.825562 
	C59.099987,183.408768 58.532169,183.222458 57.964355,183.036163 
	C57.964355,183.036163 58.003792,183.004959 57.853935,182.787872 
	C57.369019,182.459366 57.033962,182.347946 56.698898,182.236542 
	C56.698898,182.236542 56.861328,182.194809 56.731781,181.937775 
	C55.947308,181.494141 55.292385,181.307541 54.637466,181.120911 
z"/>
<path fill="#4044E0" opacity="1.000000" stroke="none" 
	d="
M60.425262,144.756622 
	C60.063599,145.255615 59.701931,145.754593 59.340256,146.253571 
	C62.534134,148.560944 60.530930,151.295822 60.016495,153.946060 
	C58.928612,159.550598 58.380016,165.313339 56.696728,170.727158 
	C55.796658,173.621979 52.997608,175.926346 50.977974,178.870361 
	C44.522102,175.904739 38.143829,172.565933 31.735439,168.775711 
	C31.705326,168.324295 32.026882,167.970688 32.415428,167.980850 
	C34.408283,168.678574 35.958431,169.676895 37.631737,169.968536 
	C39.395542,170.275940 41.276951,169.908554 43.106979,169.835983 
	C42.801937,168.443909 42.495792,167.052063 42.192162,165.659683 
	C41.892830,164.286972 40.982822,162.683182 41.398174,161.578308 
	C43.991234,154.680511 46.880795,147.894196 49.520016,141.442764 
	C48.641876,140.062012 47.928185,138.939819 47.488544,137.776154 
	C51.983486,140.075333 56.204376,142.415970 60.425262,144.756622 
z"/>
<path fill="#4C21D0" opacity="1.000000" stroke="none" 
	d="
M176.425629,152.110001 
	C176.038361,151.669342 176.022644,151.192337 176.226776,150.087006 
	C177.727554,148.137970 179.142776,146.921814 180.266342,145.478592 
	C185.411179,138.869980 187.710587,131.825684 185.275711,123.228180 
	C184.501801,120.495453 186.926331,116.948715 187.554337,113.709908 
	C189.422287,104.076454 191.031387,94.391846 192.994736,84.778923 
	C193.281570,83.374466 194.948730,82.251938 195.983917,81.421585 
	C196.009979,83.251602 196.029312,84.658981 196.048645,86.066360 
	C196.035278,89.386955 196.021912,92.707550 196.011902,96.952316 
	C196.011581,104.006218 195.911545,110.137863 196.033707,116.265083 
	C196.138229,121.507820 196.497482,126.745476 196.744064,131.985382 
	C196.715271,132.461777 196.686493,132.938187 196.174805,133.845551 
	C195.576675,135.273270 195.461456,136.270050 195.346237,137.266815 
	C195.346237,137.266815 195.314331,137.124023 195.021545,137.256485 
	C194.670013,138.023346 194.611282,138.657761 194.552536,139.292160 
	C194.552536,139.292160 194.483398,139.336227 194.134125,139.388412 
	C193.568390,140.101410 193.351944,140.762207 193.135498,141.423019 
	C187.689392,144.973221 182.243286,148.523422 176.425629,152.110001 
z"/>
<path fill="#4140DF" opacity="1.000000" stroke="none" 
	d="
M89.107330,43.893887 
	C92.288902,45.340748 95.470467,46.787609 98.992432,48.796185 
	C99.918114,49.547066 100.503403,49.736233 101.088684,49.925400 
	C101.088684,49.925400 101.015602,49.984730 101.152969,50.188828 
	C101.625397,50.508900 101.960464,50.624870 102.295525,50.740837 
	C102.295525,50.740837 102.162842,50.726311 102.236557,51.032280 
	C103.541695,52.891605 104.773109,54.444958 105.631981,56.006706 
	C103.533684,58.526340 100.100273,61.256607 100.389236,63.509445 
	C101.425903,71.591965 98.007660,78.157822 94.652397,84.996483 
	C93.850441,85.007019 93.392082,85.015121 92.661392,84.979965 
	C92.257355,84.808449 92.125648,84.680206 91.912514,84.263245 
	C91.145966,83.723602 90.460854,83.472679 89.823029,83.192886 
	C89.870308,83.164024 89.867241,83.274780 89.755348,82.966934 
	C89.044548,82.479950 88.445648,82.300827 87.892227,82.105820 
	C87.937714,82.089951 87.936684,82.186302 87.797607,81.898041 
	C87.066971,81.441490 86.475418,81.273201 85.925766,81.076904 
	C85.967659,81.048904 85.940567,81.145981 85.801910,80.870270 
	C85.095032,80.416420 84.526810,80.238266 83.976974,80.030571 
	C83.995354,80.001022 83.953735,80.060783 83.804626,79.800949 
	C83.098335,79.368103 82.541161,79.195084 81.729263,79.015472 
	C81.316368,78.946899 81.158211,78.884918 80.965668,78.552635 
	C80.302361,78.126228 79.673424,77.970123 78.725357,77.826782 
	C77.229576,76.965149 76.052933,76.090759 75.309250,75.152908 
	C78.108719,74.344383 80.458130,73.538399 82.845573,72.867844 
	C86.897026,71.729935 85.799232,69.032310 85.163544,66.214668 
	C84.958534,65.305984 86.118347,64.171577 86.265366,63.087746 
	C87.134834,56.677757 94.602921,51.232883 89.107330,43.893887 
z"/>
<path fill="#3954EA" opacity="1.000000" stroke="none" 
	d="
M102.985596,7.079477 
	C104.444633,6.431071 105.903664,5.782664 107.999237,5.408458 
	C112.133965,6.103933 115.632149,6.525206 119.130341,6.946480 
	C119.130341,6.946480 119.570549,6.958545 119.742485,7.373300 
	C119.175995,9.056647 118.265060,10.259410 117.748642,11.612719 
	C117.251945,12.914371 116.574570,14.589805 116.994499,15.724173 
	C119.159660,21.572870 117.365967,26.406469 113.500175,30.681421 
	C111.804581,32.556477 111.107651,33.614151 113.881493,35.157078 
	C117.152878,36.976753 115.993988,38.332569 112.598602,39.003242 
	C111.402504,39.058895 110.605057,39.115582 109.807602,39.172272 
	C109.807602,39.172272 109.895943,39.104771 109.751755,38.857582 
	C109.195648,38.442993 108.783714,38.275589 108.371788,38.108185 
	C107.676270,37.899872 106.980759,37.691559 105.979401,36.999268 
	C105.136040,36.339314 104.598503,36.163338 104.060974,35.987366 
	C104.060974,35.987366 104.005890,36.010239 103.869263,35.763168 
	C103.426598,35.388012 103.120560,35.259922 102.814529,35.131832 
	C102.814529,35.131832 102.919785,35.109035 102.789703,34.868164 
	C102.080460,34.449398 101.501312,34.271507 100.922157,34.093620 
	C100.922157,34.093620 100.920723,34.052921 100.884445,33.709175 
	C99.559982,32.915371 98.271797,32.465309 96.983604,32.015247 
	C96.983604,32.015247 97.000000,31.999847 96.938049,31.653255 
	C96.130333,31.142702 95.384552,30.978739 94.638779,30.814777 
	C94.638779,30.814777 94.318596,30.765451 94.492569,30.304352 
	C95.798027,27.105047 97.167740,24.437061 98.000748,21.610882 
	C99.044220,18.070683 99.013306,13.987431 103.548141,13.345069 
	C103.336967,10.993004 103.161278,9.036240 102.985596,7.079477 
z"/>
<path fill="#3D46E2" opacity="1.000000" stroke="none" 
	d="
M89.086075,43.917007 
	C94.602921,51.232883 87.134834,56.677757 86.265366,63.087746 
	C86.118347,64.171577 84.958534,65.305984 85.163544,66.214668 
	C85.799232,69.032310 86.897026,71.729935 82.845573,72.867844 
	C80.458130,73.538399 78.108719,74.344383 75.311249,75.126999 
	C74.880295,75.164543 74.923218,75.186104 74.785065,74.897247 
	C74.053726,74.441208 73.460556,74.274025 72.908218,74.089981 
	C72.949066,74.073135 72.943802,74.161339 72.799789,73.878563 
	C72.070061,73.410690 71.484344,73.225601 70.658997,73.050133 
	C70.419357,73.059761 69.980072,72.867142 69.846298,72.667847 
	C69.471664,72.232658 69.182770,72.108147 68.897919,72.094109 
	C68.949989,72.093201 68.875366,72.165878 68.893738,71.830917 
	C68.608093,70.666084 68.304077,69.836227 68.000069,69.006363 
	C69.018021,67.536232 70.538887,66.197662 70.964073,64.572456 
	C72.535492,58.565884 73.707550,52.455814 75.130844,46.408451 
	C75.343231,45.506092 75.970619,44.612545 76.622726,43.918560 
	C78.936020,41.456707 77.675972,39.878086 75.498215,38.306976 
	C73.957932,37.195763 72.573334,35.868755 71.081207,34.290947 
	C74.147255,35.565723 77.251312,37.187637 80.840424,39.163239 
	C81.655960,39.573307 81.986450,39.629688 82.316933,39.686066 
	C82.316933,39.686066 82.174210,39.726089 82.273499,39.997559 
	C82.995056,40.418156 83.617340,40.567287 84.239616,40.716423 
	C84.239616,40.716423 84.101097,40.753471 84.218880,41.016083 
	C84.906586,41.497974 85.476509,41.717258 86.046432,41.936543 
	C86.046432,41.936543 85.999161,41.989151 86.140778,42.207085 
	C86.588486,42.594593 86.894562,42.764164 87.200638,42.933739 
	C87.200638,42.933739 87.606415,42.917362 87.928841,43.188801 
	C88.543175,43.620136 88.835083,43.780033 89.126991,43.939926 
	C89.126991,43.939930 89.064812,43.940125 89.086075,43.917007 
z"/>
<path fill="#3C4CE6" opacity="1.000000" stroke="none" 
	d="
M112.997253,39.004276 
	C115.993988,38.332569 117.152878,36.976753 113.881493,35.157078 
	C111.107651,33.614151 111.804581,32.556477 113.500175,30.681421 
	C117.365967,26.406469 119.159660,21.572870 116.994499,15.724173 
	C116.574570,14.589805 117.251945,12.914371 117.748642,11.612719 
	C118.265060,10.259410 119.175995,9.056647 119.954475,7.432796 
	C120.291130,7.175644 120.587723,7.273749 121.096619,7.955372 
	C122.557526,9.007685 123.806145,9.476479 125.054756,9.945272 
	C125.054756,9.945272 124.998093,9.996239 125.065285,10.328421 
	C126.143860,11.086447 127.155243,11.512291 128.166626,11.938134 
	C128.166626,11.938134 128.611130,11.977337 128.959930,12.265142 
	C129.562302,12.782887 129.859863,12.909378 130.201401,12.932424 
	C130.201401,12.932424 130.609879,12.917872 130.938751,13.197454 
	C131.567154,13.631488 131.866653,13.785939 132.166168,13.940390 
	C132.166168,13.940390 132.597473,13.957744 132.930191,14.229084 
	C133.492981,14.748734 133.775909,14.894375 134.111710,14.937346 
	C134.111710,14.937346 134.068329,14.921881 134.090576,14.911091 
	C132.961365,17.883209 131.813995,20.867704 130.656174,23.848135 
	C130.265045,24.854980 129.412582,25.899738 129.517319,26.844418 
	C129.965927,30.890680 131.314667,34.883968 126.681641,37.881031 
	C125.983597,38.332584 127.429955,42.099072 128.029343,45.044571 
	C126.200111,45.044571 123.939987,45.044571 121.287674,45.075459 
	C120.895485,45.106346 120.931549,45.052654 120.817711,44.832191 
	C120.361900,44.507935 120.019936,44.404137 119.677963,44.300343 
	C119.677963,44.300343 119.815887,44.330833 119.742599,44.000160 
	C117.484398,42.764259 115.299477,41.859032 113.114563,40.953800 
	C113.114563,40.953800 113.047043,40.987225 113.029655,40.632271 
	C113.007263,39.852966 113.002258,39.428623 112.997253,39.004276 
z"/>
<path fill="#482FD6" opacity="1.000000" stroke="none" 
	d="
M103.091827,168.784576 
	C101.401276,172.915985 99.581543,177.000687 98.064819,181.194962 
	C97.024094,184.072937 96.591621,187.171371 95.544304,190.046326 
	C94.487389,192.947571 95.347450,194.101547 98.697800,194.054047 
	C93.195206,199.712570 86.580391,197.809631 80.106201,195.624298 
	C77.658165,194.797958 75.513756,193.072128 73.081879,191.414093 
	C72.932816,191.071869 73.038673,190.938904 73.434479,190.967331 
	C80.971535,192.780014 84.289894,190.862167 86.010513,183.701050 
	C87.157593,178.926956 87.534767,173.895294 89.261955,169.361969 
	C90.212730,166.866470 91.921181,164.798630 91.454315,161.941376 
	C95.579216,164.229660 99.335526,166.507111 103.091827,168.784576 
z"/>
<path fill="#4936D8" opacity="1.000000" stroke="none" 
	d="
M127.160828,64.524918 
	C125.501015,70.102531 123.418564,75.249275 122.070549,80.581665 
	C119.423004,91.054718 117.229813,101.642151 114.682724,112.142014 
	C114.493523,112.921997 112.977135,113.380020 111.603256,113.548157 
	C111.391678,105.435089 111.135300,97.917885 105.205170,92.153938 
	C109.188774,91.496223 112.899429,91.432098 113.714516,86.379166 
	C114.532043,81.311066 115.751381,76.246681 117.427948,71.399742 
	C118.544952,68.170517 120.507210,65.393822 114.749245,64.431595 
	C115.858559,63.094280 116.543472,62.268597 117.502235,61.112762 
	C115.997536,59.797878 114.453590,58.448696 112.955261,57.048534 
	C113.000885,56.997551 113.091782,56.895264 113.091782,56.895264 
	C117.751251,59.322830 122.410713,61.750397 127.160828,64.524918 
z"/>
<path fill="#4D25CD" opacity="1.000000" stroke="none" 
	d="
M131.356140,176.966415 
	C130.783096,176.023773 130.575333,175.061813 130.269501,173.645737 
	C133.185547,172.197083 136.209198,170.694992 139.857025,168.882812 
	C139.778961,167.525040 139.669662,165.624557 139.544922,163.455292 
	C141.063995,163.194626 142.642075,162.923843 142.956467,162.869904 
	C142.903137,158.688095 142.836182,154.904968 142.816818,151.121613 
	C142.810043,149.798248 143.413376,148.229919 142.897827,147.190063 
	C139.419266,140.173813 143.724365,134.385406 145.557510,128.185684 
	C145.968506,126.795700 145.976791,125.253647 145.979904,123.781204 
	C146.007980,110.499771 145.993561,97.218262 145.984406,83.468079 
	C145.991409,82.210381 146.005646,81.421371 146.038391,80.238144 
	C146.724640,82.117889 147.958527,84.388313 147.972733,86.666344 
	C148.118698,110.078995 148.056732,133.492889 148.075180,156.906418 
	C148.083969,168.061218 140.750763,173.187119 131.356140,176.966415 
z"/>
<path fill="#3D56E5" opacity="1.000000" stroke="none" 
	d="
M61.005447,33.017948 
	C60.218365,35.280205 60.090317,38.366631 58.506790,39.632877 
	C55.225994,42.256329 55.985416,44.371342 57.672749,47.250851 
	C58.264126,48.260071 58.396069,50.608616 57.773804,51.084171 
	C53.910427,54.036659 54.804001,57.200050 56.707706,60.668789 
	C56.957680,61.124260 56.610378,61.907524 56.216705,62.630363 
	C55.808132,62.672977 55.722565,62.624191 55.636997,62.575405 
	C55.756847,62.717834 55.876694,62.860268 55.996544,63.002697 
	C56.227516,63.545006 56.458492,64.087318 56.352402,64.893509 
	C51.299923,62.570923 46.584511,59.984444 41.869095,57.397964 
	C44.593678,54.801720 47.318264,52.205479 50.458462,49.213203 
	C49.031773,48.155750 47.091541,46.717663 44.623707,44.888523 
	C46.016487,44.072090 46.970894,43.619114 47.800823,42.999420 
	C48.859604,42.208836 49.817810,41.283558 50.819366,40.416336 
	C49.421516,40.157833 48.032417,39.796051 46.622780,39.676571 
	C45.658272,39.594822 44.665142,39.850708 43.263817,39.913506 
	C48.315205,37.208679 53.787590,34.545994 59.752914,32.197754 
	C60.448910,32.756081 60.702103,32.924664 61.005447,33.017948 
z"/>
<path fill="#3B5FE8" opacity="1.000000" stroke="none" 
	d="
M102.626114,7.026269 
	C103.161278,9.036240 103.336967,10.993004 103.548141,13.345069 
	C99.013306,13.987431 99.044220,18.070683 98.000748,21.610882 
	C97.167740,24.437061 95.798027,27.105047 94.375229,30.192694 
	C88.531441,27.613995 82.978966,24.685854 76.258751,21.141895 
	C85.431557,16.144642 93.849091,11.558852 102.626114,7.026269 
z"/>
<path fill="#4D3ABA" opacity="1.000000" stroke="none" 
	d="
M160.835114,78.412918 
	C161.572723,81.023300 162.297852,84.078979 163.021698,88.033905 
	C163.021942,108.954018 163.023499,128.974869 163.025055,148.995728 
	C164.065384,151.922958 160.688797,155.963440 165.708603,158.043945 
	C164.796921,158.930374 163.469269,159.765350 161.795197,160.818207 
	C161.795197,138.508484 161.858749,116.853790 161.750748,95.199966 
	C161.723572,89.751312 161.146835,84.305389 160.835114,78.412918 
z"/>
<path fill="#5132B6" opacity="1.000000" stroke="none" 
	d="
M196.855209,131.528351 
	C196.497482,126.745476 196.138229,121.507820 196.033707,116.265083 
	C195.911545,110.137863 196.011581,104.006218 196.031494,97.404373 
	C196.345444,98.946938 196.879028,100.959114 196.900497,102.976738 
	C197.000168,112.340775 196.957840,121.706329 196.855209,131.528351 
z"/>
<path fill="#4A2FB4" opacity="1.000000" stroke="none" 
	d="
M196.398102,85.812515 
	C196.029312,84.658981 196.009979,83.251602 195.991608,80.953293 
	C195.987640,73.708633 195.982697,67.354889 195.977753,61.001152 
	C196.089096,60.173832 196.200424,59.346512 196.519409,58.282616 
	C196.733917,67.216919 196.740753,76.387794 196.398102,85.812515 
z"/>
<path fill="#4936D8" opacity="1.000000" stroke="none" 
	d="
M106.004524,55.998314 
	C104.773109,54.444958 103.541695,52.891605 102.279266,50.980995 
	C105.763161,52.497208 109.278069,54.370674 112.942383,56.569702 
	C113.091782,56.895264 113.000885,56.997551 112.561508,57.016018 
	C110.082924,56.689095 108.043724,56.343704 106.004524,55.998314 
z"/>
<path fill="#4D25CD" opacity="1.000000" stroke="none" 
	d="
M121.799843,179.285919 
	C124.141785,178.695984 126.281898,178.386658 128.811111,178.143616 
	C126.427574,179.553452 123.654938,180.896973 120.514847,182.341461 
	C120.630928,181.483810 121.114464,180.525177 121.799843,179.285919 
z"/>
<path fill="#3C4AE5" opacity="1.000000" stroke="none" 
	d="
M16.519279,160.571869 
	C14.081255,158.932907 11.643227,157.293930 9.122779,155.305542 
	C9.040359,154.956116 9.099128,154.895203 9.439060,154.931427 
	C10.852027,155.314407 11.925063,155.661163 13.191861,156.273773 
	C14.601655,157.684158 15.817686,158.828705 16.897894,160.116699 
	C16.762070,160.260162 16.519278,160.571884 16.519279,160.571869 
z"/>
<path fill="#3C4CE6" opacity="1.000000" stroke="none" 
	d="
M118.920197,6.608100 
	C115.632149,6.525206 112.133965,6.103933 108.345711,5.434397 
	C111.607117,5.547329 115.158585,5.908525 118.920197,6.608100 
z"/>
<path fill="#4927D3" opacity="1.000000" stroke="none" 
	d="
M182.249344,40.738468 
	C184.446182,41.902798 186.643005,43.067123 189.005341,44.526154 
	C189.170853,44.820858 189.043655,44.950138 188.614288,44.982540 
	C186.099930,43.700893 184.014954,42.386841 182.009735,40.989124 
	C182.089478,40.905460 182.249344,40.738468 182.249344,40.738468 
z"/>
<path fill="#3F45E1" opacity="1.000000" stroke="none" 
	d="
M113.318855,41.220139 
	C115.299477,41.859032 117.484398,42.764259 119.691887,44.049320 
	C117.650688,43.448257 115.586922,42.467365 113.318855,41.220139 
z"/>
<path fill="#4044E0" opacity="1.000000" stroke="none" 
	d="
M31.534882,168.491791 
	C30.000895,167.994339 28.637354,167.329407 27.121269,166.346649 
	C26.968723,166.028809 27.042601,165.929245 27.434479,165.950226 
	C29.226534,166.637695 30.626711,167.304184 32.026886,167.970673 
	C32.026882,167.970688 31.705326,168.324295 31.534882,168.491791 
z"/>
<path fill="#4D25CD" opacity="1.000000" stroke="none" 
	d="
M144.331970,75.233749 
	C143.585892,75.676247 142.728607,75.833099 141.435959,75.994675 
	C141.064117,75.128258 141.127625,74.257133 141.360916,72.974869 
	C142.427399,73.358536 143.324066,74.153320 144.331970,75.233749 
z"/>
<path fill="#3D46E2" opacity="1.000000" stroke="none" 
	d="
M61.444054,33.011841 
	C60.702103,32.924664 60.448910,32.756081 60.132233,32.311592 
	C62.255913,32.141006 64.493225,32.171024 66.945503,32.569389 
	C65.401199,32.960400 63.641930,32.983067 61.444054,33.011841 
z"/>
<path fill="#3B5FE8" opacity="1.000000" stroke="none" 
	d="
M97.175766,32.277145 
	C98.271797,32.465309 99.559982,32.915371 100.877014,33.734325 
	C99.726547,33.581829 98.547241,33.060436 97.175766,32.277145 
z"/>
<path fill="#3F45E1" opacity="1.000000" stroke="none" 
	d="
M124.932648,9.615990 
	C123.806145,9.476479 122.557526,9.007685 121.171631,8.213886 
	C122.293083,8.354824 123.551804,8.820765 124.932648,9.615990 
z"/>
<path fill="#4927D3" opacity="1.000000" stroke="none" 
	d="
M178.999176,40.040413 
	C178.828705,39.856850 178.640488,39.685249 178.502090,39.480053 
	C178.473007,39.436905 178.626907,39.270344 178.865967,39.061264 
	C179.981598,39.384739 180.927750,39.807602 182.061615,40.484467 
	C182.249344,40.738468 182.089478,40.905460 181.700623,40.939152 
	C180.540909,40.662033 179.770035,40.351223 178.999176,40.040413 
z"/>
<path fill="#3D56E5" opacity="1.000000" stroke="none" 
	d="
M42.551842,39.838699 
	C42.088554,40.421329 41.305450,41.040417 40.288223,41.440987 
	C40.780079,40.773365 41.506054,40.324265 42.551842,39.838699 
z"/>
<path fill="#482FD6" opacity="1.000000" stroke="none" 
	d="
M61.982964,185.443848 
	C62.610973,185.117111 63.405891,185.060669 64.604385,185.319031 
	C65.042488,186.052017 65.077003,186.470184 65.087769,186.912292 
	C65.064003,186.936234 65.017265,186.984879 65.017258,186.984894 
	C64.061462,186.561295 63.105663,186.137711 61.982964,185.443848 
z"/>
<path fill="#3F45E1" opacity="1.000000" stroke="none" 
	d="
M128.020859,11.639355 
	C127.155243,11.512291 126.143860,11.086447 125.091934,10.299938 
	C125.992615,10.406374 126.933853,10.873475 128.020859,11.639355 
z"/>
<path fill="#3F45E1" opacity="1.000000" stroke="none" 
	d="
M112.598602,39.003242 
	C113.002258,39.428623 113.007263,39.852966 113.021896,40.595406 
	C112.053902,40.522102 111.076271,40.130711 109.953125,39.455795 
	C110.605057,39.115582 111.402504,39.058895 112.598602,39.003242 
z"/>
<path fill="#5132B6" opacity="1.000000" stroke="none" 
	d="
M195.580566,137.083435 
	C195.461456,136.270050 195.576675,135.273270 195.975922,134.147278 
	C196.111588,134.978714 195.963242,135.939377 195.580566,137.083435 
z"/>
<path fill="#3B5FE8" opacity="1.000000" stroke="none" 
	d="
M94.811905,31.017759 
	C95.384552,30.978739 96.130333,31.142702 96.931343,31.661999 
	C96.319397,31.751802 95.652214,31.486273 94.811905,31.017759 
z"/>
<path fill="#482FD6" opacity="1.000000" stroke="none" 
	d="
M99.386002,194.113464 
	C99.758057,193.751617 100.469139,193.375854 101.508179,192.997620 
	C101.132439,193.363297 100.428734,193.731415 99.386002,194.113464 
z"/>
<path fill="#482FD6" opacity="1.000000" stroke="none" 
	d="
M67.593315,188.397736 
	C66.848000,188.094101 66.102684,187.790466 65.187317,187.235840 
	C65.017265,186.984879 65.064003,186.936234 65.411865,186.952377 
	C66.514626,187.303024 67.269508,187.637527 67.916840,188.078674 
	C67.809273,188.185303 67.593315,188.397736 67.593315,188.397736 
z"/>
<path fill="#482FD6" opacity="1.000000" stroke="none" 
	d="
M60.042274,184.356003 
	C60.472122,184.275940 61.063988,184.457825 61.781799,184.937927 
	C61.339928,185.030075 60.772114,184.824005 60.042274,184.356003 
z"/>
<path fill="#3B5FE8" opacity="1.000000" stroke="none" 
	d="
M104.214462,36.231903 
	C104.598503,36.163338 105.136040,36.339314 105.825912,36.761765 
	C105.441483,36.830978 104.904709,36.653709 104.214462,36.231903 
z"/>
<path fill="#5132B6" opacity="1.000000" stroke="none" 
	d="
M194.774399,139.101807 
	C194.611282,138.657761 194.670013,138.023346 195.076080,137.305237 
	C195.281036,137.784836 195.138657,138.348160 194.774399,139.101807 
z"/>
<path fill="#482FD6" opacity="1.000000" stroke="none" 
	d="
M72.877106,191.136047 
	C72.274483,191.013779 71.727577,190.827347 71.070076,190.340881 
	C70.959473,190.040833 71.039787,189.937729 71.331039,189.977112 
	C72.094414,190.323975 72.566544,190.631439 73.038673,190.938904 
	C73.038673,190.938904 72.932816,191.071869 72.877106,191.136047 
z"/>
<path fill="#482FD6" opacity="1.000000" stroke="none" 
	d="
M70.916901,190.090424 
	C70.325844,189.955215 69.777359,189.770416 69.106377,189.297867 
	C68.983887,189.010101 69.048004,188.931839 69.338287,188.972717 
	C70.098969,189.321625 70.569382,189.629684 71.039787,189.937729 
	C71.039787,189.937729 70.959473,190.040833 70.916901,190.090424 
z"/>
<path fill="#5132B6" opacity="1.000000" stroke="none" 
	d="
M193.405151,141.247681 
	C193.351944,140.762207 193.568390,140.101410 194.157684,139.421967 
	C194.245270,139.959686 193.960022,140.516006 193.405151,141.247681 
z"/>
<path fill="#3B5FE8" opacity="1.000000" stroke="none" 
	d="
M101.071640,34.355946 
	C101.501312,34.271507 102.080460,34.449398 102.780701,34.921253 
	C102.341568,35.016235 101.781342,34.817253 101.071640,34.355946 
z"/>
<path fill="#3D46E2" opacity="1.000000" stroke="none" 
	d="
M70.917862,33.654572 
	C70.471718,33.783276 69.891930,33.612301 69.142220,33.180473 
	C69.576271,33.064713 70.180237,33.209801 70.917862,33.654572 
z"/>
<path fill="#4044E0" opacity="1.000000" stroke="none" 
	d="
M21.760914,163.247482 
	C21.216200,163.071732 20.671486,162.895981 20.020430,162.407684 
	C19.914087,162.095123 20.049746,161.932129 20.340309,161.971893 
	C21.100266,162.321487 21.569660,162.631332 21.971916,163.019928 
	C21.904776,163.098679 21.760916,163.247482 21.760914,163.247482 
z"/>
<path fill="#3C4AE5" opacity="1.000000" stroke="none" 
	d="
M9.010516,154.986115 
	C8.562325,154.671844 8.143978,154.327576 7.742120,153.610046 
	C7.758609,153.236786 8.024380,152.977921 8.259124,153.143906 
	C8.695621,153.838333 8.897376,154.366760 9.099129,154.895203 
	C9.099128,154.895203 9.040359,154.956116 9.010516,154.986115 
z"/>
<path fill="#482FD6" opacity="1.000000" stroke="none" 
	d="
M58.143288,183.273773 
	C58.532169,183.222458 59.099987,183.408768 59.810196,183.869080 
	C59.409130,183.932526 58.865673,183.721954 58.143288,183.273773 
z"/>
<path fill="#4535DA" opacity="1.000000" stroke="none" 
	d="
M54.832996,181.385056 
	C55.292385,181.307541 55.947308,181.494141 56.716652,182.020248 
	C56.230228,182.122894 55.629379,181.886047 54.832996,181.385056 
z"/>
<path fill="#4044E0" opacity="1.000000" stroke="none" 
	d="
M26.929289,166.076645 
	C26.345566,165.934280 25.801277,165.744095 25.127703,165.273743 
	C24.998417,164.993591 25.042189,164.932770 25.333323,164.971436 
	C26.097172,165.316483 26.569885,165.622864 27.042599,165.929245 
	C27.042601,165.929245 26.968723,166.028809 26.929289,166.076645 
z"/>
<path fill="#4D3ABA" opacity="1.000000" stroke="none" 
	d="
M166.354645,158.126328 
	C166.528839,157.779984 167.011292,157.416824 167.818024,157.064056 
	C167.649155,157.419449 167.156021,157.764465 166.354645,158.126328 
z"/>
<path fill="#4044E0" opacity="1.000000" stroke="none" 
	d="
M24.975273,165.023056 
	C24.406754,164.865875 23.861382,164.679230 23.185604,164.219147 
	C23.055199,163.945694 23.101398,163.900131 23.383232,163.953979 
	C24.124107,164.316162 24.583147,164.624466 25.042187,164.932770 
	C25.042189,164.932770 24.998417,164.993591 24.975273,165.023056 
z"/>
<path fill="#4D3ABA" opacity="1.000000" stroke="none" 
	d="
M159.910278,75.396423 
	C160.238846,75.643906 160.571854,76.243202 160.878052,77.214874 
	C160.539078,76.974243 160.226898,76.361237 159.910278,75.396423 
z"/>
<path fill="#4D25CD" opacity="1.000000" stroke="none" 
	d="
M141.387360,72.306458 
	C141.007034,72.312469 140.550598,72.065178 140.045670,71.521584 
	C140.435196,71.501244 140.873215,71.777206 141.387360,72.306458 
z"/>
<path fill="#4D25CD" opacity="1.000000" stroke="none" 
	d="
M137.846909,69.738235 
	C137.455032,69.791245 136.890121,69.602684 136.178589,69.145157 
	C136.579285,69.083008 137.126572,69.289841 137.846909,69.738235 
z"/>
<path fill="#4140DF" opacity="1.000000" stroke="none" 
	d="
M85.935074,41.647270 
	C85.476509,41.717258 84.906586,41.497974 84.265366,40.961502 
	C84.737289,40.882210 85.280502,41.120102 85.935074,41.647270 
z"/>
<path fill="#4936D8" opacity="1.000000" stroke="none" 
	d="
M100.926895,49.665070 
	C100.503403,49.736233 99.918114,49.547066 99.199844,49.068092 
	C99.632942,48.987103 100.199020,49.195923 100.926895,49.665070 
z"/>
<path fill="#4140DF" opacity="1.000000" stroke="none" 
	d="
M84.085663,40.451874 
	C83.617340,40.567287 82.995056,40.418156 82.300919,39.928703 
	C82.796616,39.788033 83.364159,39.987679 84.085663,40.451874 
z"/>
<path fill="#3F45E1" opacity="1.000000" stroke="none" 
	d="
M130.093658,12.686888 
	C129.859863,12.909378 129.562302,12.782887 129.164978,12.353069 
	C129.342789,12.249244 129.664337,12.345298 130.093658,12.686888 
z"/>
<path fill="#4936D8" opacity="1.000000" stroke="none" 
	d="
M102.185356,50.486366 
	C101.960464,50.624870 101.625397,50.508900 101.169235,50.144665 
	C101.390488,50.008232 101.732841,50.120064 102.185356,50.486366 
z"/>
<path fill="#4D25CD" opacity="1.000000" stroke="none" 
	d="
M129.432495,178.170624 
	C129.330872,177.926056 129.504028,177.597534 129.946686,177.169525 
	C130.046555,177.408920 129.876923,177.747803 129.432495,178.170624 
z"/>
<path fill="#4D25CD" opacity="1.000000" stroke="none" 
	d="
M139.321381,70.626564 
	C139.112762,70.749992 138.735870,70.614540 138.186737,70.228210 
	C138.394043,70.107460 138.773575,70.237579 139.321381,70.626564 
z"/>
<path fill="#4535DA" opacity="1.000000" stroke="none" 
	d="
M56.813026,182.491409 
	C57.033962,182.347946 57.369019,182.459366 57.838036,182.808441 
	C57.623707,182.946182 57.275429,182.846237 56.813026,182.491409 
z"/>
<path fill="#4044E0" opacity="1.000000" stroke="none" 
	d="
M19.846115,162.176483 
	C19.778145,162.257858 19.347357,162.225037 19.171694,161.862305 
	C18.996031,161.499588 18.989864,161.029465 19.213512,161.117645 
	C19.715944,161.384995 19.920139,161.627090 20.049746,161.932129 
	C20.049746,161.932129 19.914087,162.095123 19.846115,162.176483 
z"/>
<path fill="#4533DA" opacity="1.000000" stroke="none" 
	d="
M150.199341,61.961014 
	C150.307846,61.809788 150.571960,61.842510 150.830109,62.065201 
	C150.824112,62.255169 150.354980,62.144966 150.199341,61.961014 
z"/>
<path fill="#482FD6" opacity="1.000000" stroke="none" 
	d="
M68.950531,189.048126 
	C68.585739,188.992981 68.254303,188.899796 67.758087,188.602173 
	C67.593315,188.397736 67.809273,188.185303 68.129318,188.189941 
	C68.717651,188.384521 68.917198,188.630264 69.048004,188.931839 
	C69.048004,188.931839 68.983887,189.010101 68.950531,189.048126 
z"/>
<path fill="#3F45E1" opacity="1.000000" stroke="none" 
	d="
M134.019104,14.676880 
	C133.775909,14.894375 133.492981,14.748734 133.136108,14.293754 
	C133.315048,14.196860 133.620773,14.306637 134.019104,14.676880 
z"/>
<path fill="#4140DF" opacity="1.000000" stroke="none" 
	d="
M82.192810,39.435024 
	C81.986450,39.629688 81.655960,39.573307 81.170235,39.308380 
	C81.366219,39.127884 81.717453,39.155933 82.192810,39.435024 
z"/>
<path fill="#3B5FE8" opacity="1.000000" stroke="none" 
	d="
M102.916672,35.376690 
	C103.120560,35.259922 103.426598,35.388012 103.863609,35.733887 
	C103.669334,35.841633 103.344078,35.731590 102.916672,35.376690 
z"/>
<path fill="#4140DF" opacity="1.000000" stroke="none" 
	d="
M87.093002,42.683960 
	C86.894562,42.764164 86.588486,42.594593 86.165108,42.184608 
	C86.360329,42.107525 86.672844,42.270855 87.093002,42.683960 
z"/>
<path fill="#3C4AE5" opacity="1.000000" stroke="none" 
	d="
M7.619741,153.359772 
	C7.270073,153.214691 7.059273,152.946625 6.811216,152.421783 
	C6.773960,152.165024 6.935510,152.073944 7.211923,152.141998 
	C7.737022,152.417130 7.915703,152.673096 8.024380,152.977921 
	C8.024380,152.977921 7.758609,153.236786 7.619741,153.359772 
z"/>
<path fill="#4140DF" opacity="1.000000" stroke="none" 
	d="
M89.039551,43.658447 
	C88.835083,43.780033 88.543175,43.620136 88.125351,43.239922 
	C88.316994,43.138729 88.634552,43.257851 89.039551,43.658447 
z"/>
<path fill="#3F45E1" opacity="1.000000" stroke="none" 
	d="
M119.794724,44.551834 
	C120.019936,44.404137 120.361900,44.507935 120.828720,44.862034 
	C120.606201,45.009331 120.258850,44.906326 119.794724,44.551834 
z"/>
<path fill="#4044E0" opacity="1.000000" stroke="none" 
	d="
M23.032120,163.968475 
	C22.686005,163.889923 22.362968,163.788589 21.900425,163.467361 
	C21.760916,163.247482 21.904776,163.098679 22.212917,163.040176 
	C22.521057,162.981674 23.003843,163.010056 23.020004,163.233475 
	C23.036167,163.456894 23.101398,163.900131 23.101398,163.900131 
	C23.101398,163.900131 23.055199,163.945694 23.032120,163.968475 
z"/>
<path fill="#4D25CD" opacity="1.000000" stroke="none" 
	d="
M145.940155,78.689095 
	C145.663361,78.701759 145.429367,78.408188 145.164581,77.827393 
	C145.416840,77.821068 145.699890,78.101959 145.940155,78.689095 
z"/>
<path fill="#3C4AE5" opacity="1.000000" stroke="none" 
	d="
M17.806253,161.201904 
	C17.468893,161.189438 17.157862,161.092529 16.696217,160.741516 
	C16.519278,160.571884 16.762070,160.260162 17.107830,160.230316 
	C17.716978,160.393753 17.914026,160.640106 17.986919,161.006760 
	C17.929102,161.073990 17.806253,161.201904 17.806253,161.201904 
z"/>
<path fill="#3C4AE5" opacity="1.000000" stroke="none" 
	d="
M18.989864,161.029465 
	C18.989864,161.029465 18.996031,161.499588 18.997601,161.734436 
	C18.676992,161.872040 18.354815,161.774811 17.919445,161.439743 
	C17.806253,161.201904 17.929102,161.073990 18.223080,161.030502 
	C18.517059,160.987015 18.989864,161.029465 18.989864,161.029465 
z"/>
<path fill="#3F45E1" opacity="1.000000" stroke="none" 
	d="
M108.541008,38.398178 
	C108.783714,38.275589 109.195648,38.442993 109.767670,38.910851 
	C109.521919,39.036922 109.116074,38.862545 108.541008,38.398178 
z"/>
<path fill="#4D25CD" opacity="1.000000" stroke="none" 
	d="
M145.161835,76.719162 
	C144.851059,76.749001 144.583832,76.479218 144.344452,75.912231 
	C144.649994,75.883209 144.927704,76.151367 145.161835,76.719162 
z"/>
<path fill="#3F45E1" opacity="1.000000" stroke="none" 
	d="
M132.063400,13.669134 
	C131.866653,13.785939 131.567154,13.631488 131.134186,13.257289 
	C131.320694,13.157654 131.640656,13.277766 132.063400,13.669134 
z"/>
<path fill="#FDFDFE" opacity="1.000000" stroke="none" 
	d="
M41.727173,57.368679 
	C46.584511,59.984444 51.299923,62.570923 56.365345,65.187584 
	C56.715351,65.217766 56.764877,65.199379 56.871910,65.424309 
	C57.298607,65.793251 57.618271,65.937256 57.937935,66.081261 
	C57.937935,66.081261 57.969513,66.015480 58.067589,66.340881 
	C58.763660,66.794579 59.361660,66.922874 59.959656,67.051170 
	C59.959656,67.051170 59.966415,67.032463 60.166389,67.296509 
	C61.158852,67.857544 61.951340,68.154549 62.743828,68.451553 
	C62.743828,68.451553 62.830883,68.305275 62.844894,68.565781 
	C63.200760,68.962364 63.542610,69.098442 63.884464,69.234520 
	C63.884464,69.234520 63.891617,69.131973 64.000961,69.455284 
	C65.698662,70.574356 67.287010,71.370117 68.875366,72.165878 
	C68.875366,72.165878 68.949989,72.093201 68.978317,72.350647 
	C69.331123,72.694435 69.655602,72.780792 69.980072,72.867142 
	C69.980072,72.867142 70.419357,73.059761 70.833313,73.303703 
	C71.812775,73.752213 72.378288,73.956772 72.943802,74.161339 
	C72.943802,74.161339 72.949066,74.073135 73.074036,74.349121 
	C73.773743,74.812111 74.348480,74.999107 74.923218,75.186104 
	C74.923218,75.186104 74.880295,75.164543 74.878296,75.190453 
	C76.052933,76.090759 77.229576,76.965149 78.974060,77.976318 
	C80.027962,78.349693 80.514008,78.586311 81.000053,78.822929 
	C81.158211,78.884918 81.316368,78.946899 81.886795,79.266678 
	C82.850609,79.703247 83.402176,79.882011 83.953735,80.060783 
	C83.953735,80.060783 83.995354,80.001022 84.148514,80.272415 
	C84.847961,80.744537 85.394264,80.945259 85.940567,81.145981 
	C85.940567,81.145981 85.967659,81.048904 86.082764,81.342697 
	C86.777473,81.819763 87.357079,82.003036 87.936684,82.186302 
	C87.936684,82.186302 87.937714,82.089951 88.057281,82.363457 
	C88.740311,82.849564 89.303772,83.062172 89.867241,83.274780 
	C89.867241,83.274780 89.870308,83.164024 89.940308,83.437347 
	C90.671524,83.991104 91.332741,84.271538 91.993950,84.551971 
	C92.125648,84.680206 92.257355,84.808449 92.825684,85.235191 
	C93.828896,85.710281 94.395500,85.886879 94.972153,86.029068 
	C94.982201,85.994675 94.932686,86.046593 95.139297,86.318604 
	C98.529709,88.467690 101.713501,90.344757 104.886162,92.187622 
	C104.875031,92.153419 104.841019,92.217995 104.841019,92.217995 
	C111.135300,97.917885 111.391678,105.435089 111.234779,113.558975 
	C111.269913,119.054390 111.199028,124.099419 111.108261,130.059479 
	C111.156960,138.293793 111.225548,145.613083 111.294144,152.932373 
	C111.240692,158.646988 111.187241,164.361618 111.201958,170.540207 
	C110.453606,171.333023 109.424347,172.147827 108.859924,171.900757 
	C107.074722,171.119293 105.463394,169.940613 103.438324,168.850067 
	C99.335526,166.507111 95.579216,164.229660 91.441010,161.952866 
	C91.059105,161.953537 91.067795,161.931396 90.948952,161.634277 
	C90.235443,161.175980 89.640778,161.014771 89.040710,160.901733 
	C89.035309,160.949875 89.131920,160.942398 89.053093,160.670746 
	C88.681023,160.197250 88.387772,159.995422 88.093643,159.843292 
	C88.092766,159.893005 88.183769,159.852905 88.000031,159.574280 
	C86.227890,158.508759 84.639496,157.721848 83.022995,156.962479 
	C82.994896,156.990036 83.057686,156.945892 82.884232,156.701660 
	C82.158615,156.253891 81.606445,156.050354 80.896294,155.599762 
	C80.193230,155.160919 79.648148,154.969116 78.911179,154.532440 
	C77.965736,154.005707 77.212196,153.723831 76.407646,153.448776 
	C76.356644,153.455597 76.260384,153.419220 76.090233,153.263672 
	C75.611763,153.024292 75.305740,153.032120 75.002029,153.131607 
	C75.002029,153.131607 74.653076,152.926834 74.347031,152.595520 
	C72.697159,151.504700 71.353333,150.745163 70.009514,149.985626 
	C67.037415,148.281479 64.065323,146.577347 60.759247,144.814911 
	C56.204376,142.415970 51.983486,140.075333 47.482418,137.793335 
	C47.202240,137.852005 47.193371,137.835144 47.067898,137.513336 
	C44.949471,133.459732 42.956516,129.727905 41.016510,125.530182 
	C41.057472,112.737228 40.997234,100.409988 41.048397,88.083214 
	C41.091217,77.766914 41.264248,67.451157 41.379616,57.135155 
	C41.379616,57.135155 41.585247,57.339394 41.727173,57.368679 
z"/>
<path fill="#3754EC" opacity="1.000000" stroke="none" 
	d="
M8.259124,153.143906 
	C7.915703,152.673096 7.737022,152.417130 7.286767,152.087250 
	C6.697779,150.383972 6.310359,148.803482 5.810338,146.763626 
	C7.531471,146.763626 8.859344,146.763626 10.140853,146.763626 
	C10.267521,146.266479 10.480639,145.922791 10.394501,145.689697 
	C9.741032,143.921326 8.254117,142.069290 8.475554,140.440247 
	C9.243296,134.792160 10.796471,129.501999 13.295363,124.093239 
	C16.445126,117.275696 16.532530,109.053047 18.014874,101.450974 
	C18.669090,98.095886 19.486891,94.772003 20.262865,91.441521 
	C21.158258,87.598465 22.069071,83.758743 23.010323,79.926697 
	C24.149654,75.288239 25.416826,70.678841 26.439201,66.015320 
	C26.779572,64.462738 26.995914,62.613144 26.474169,61.190899 
	C24.764967,56.531727 28.386253,55.129459 31.134462,53.711445 
	C34.168129,52.146141 37.328350,52.353622 38.691750,56.856415 
	C38.312088,60.300579 38.156864,63.149403 37.711342,66.281876 
	C35.238960,78.045334 33.411060,89.606956 30.783312,100.983826 
	C27.641321,114.587090 23.793173,128.026688 20.329117,141.557205 
	C20.059864,142.608917 20.509670,143.824905 20.437428,144.952515 
	C20.366884,146.053589 20.358994,147.883560 19.800783,148.111130 
	C16.112127,149.614899 15.104593,153.259476 12.998099,156.007919 
	C11.925063,155.661163 10.852027,155.314407 9.439060,154.931427 
	C8.897376,154.366760 8.695621,153.838333 8.259124,153.143906 
z"/>
<path fill="#3D56E5" opacity="1.000000" stroke="none" 
	d="
M38.001637,65.998222 
	C38.156864,63.149403 38.312088,60.300579 38.735336,57.224281 
	C39.531860,57.016750 40.060368,57.036701 40.984245,57.095901 
	C41.264248,67.451157 41.091217,77.766914 41.048397,88.083214 
	C40.997234,100.409988 41.057472,112.737228 40.646423,125.532684 
	C39.483231,126.000862 38.743069,126.000610 38.022240,125.700287 
	C38.358891,124.923668 38.676208,124.447113 39.288380,123.692535 
	C39.711388,120.275581 39.839546,117.136650 39.975693,113.529274 
	C39.986740,98.988037 40.054214,84.914558 39.905212,70.843376 
	C39.888042,69.221786 38.665379,67.612961 38.001637,65.998222 
z"/>
<path fill="#4936D8" opacity="1.000000" stroke="none" 
	d="
M111.527618,152.600357 
	C111.225548,145.613083 111.156960,138.293793 111.197891,130.522827 
	C111.458633,137.470200 111.609871,144.869278 111.527618,152.600357 
z"/>
<path fill="#4D25CD" opacity="1.000000" stroke="none" 
	d="
M133.836121,167.743195 
	C133.131454,167.134872 132.764557,166.448486 132.397659,165.762115 
	C132.962418,165.613602 133.527176,165.465073 134.091949,165.316528 
	C134.119263,166.099396 134.146576,166.882278 133.836121,167.743195 
z"/>
<path fill="#472BD7" opacity="1.000000" stroke="none" 
	d="
M178.993683,40.410816 
	C179.770035,40.351223 180.540909,40.662033 181.620880,41.022816 
	C184.014954,42.386841 186.099930,43.700893 188.550003,45.046509 
	C187.590668,53.207169 186.576065,61.402637 184.852936,69.446327 
	C183.195709,77.182472 180.653381,84.725098 178.805557,92.426086 
	C177.966263,95.923935 178.190308,99.675545 177.364532,103.178276 
	C175.250732,112.144699 171.901642,120.929764 170.850418,129.996506 
	C170.197342,135.629318 168.517075,140.709229 166.902893,145.922089 
	C166.523849,147.146210 164.865005,147.974045 163.409988,148.989960 
	C163.023499,128.974869 163.021942,108.954018 163.034546,88.464066 
	C164.600388,86.640007 167.238098,85.487381 167.534180,83.898445 
	C170.209000,69.543343 172.083282,55.008709 178.875443,41.765053 
	C179.016434,41.490143 178.955139,41.111481 178.993683,40.410816 
z"/>
<path fill="#4A23D4" opacity="1.000000" stroke="none" 
	d="
M195.590881,61.007263 
	C195.982697,67.354889 195.987640,73.708633 195.984894,80.530663 
	C194.948730,82.251938 193.281570,83.374466 192.994736,84.778923 
	C191.031387,94.391846 189.422287,104.076454 187.554337,113.709908 
	C186.926331,116.948715 184.501801,120.495453 185.275711,123.228180 
	C187.710587,131.825684 185.411179,138.869980 180.266342,145.478592 
	C179.142776,146.921814 177.727554,148.137970 176.223312,149.729034 
	C174.854736,150.286148 173.709488,150.572937 170.696518,151.327408 
	C174.115173,138.794876 177.256241,127.754150 180.107254,116.639030 
	C181.656601,110.598679 182.661972,104.420647 184.003952,98.324799 
	C185.800156,90.165665 187.706192,82.030769 189.518829,73.875183 
	C190.089798,71.306129 190.129105,68.544029 191.122086,66.167030 
	C191.935272,64.220444 193.803482,62.714600 195.590881,61.007263 
M180.293472,131.472534 
	C180.509232,132.581985 180.724991,133.691452 180.940750,134.800903 
	C181.868896,134.293747 182.797058,133.786591 183.725204,133.279449 
	C182.802368,132.575089 181.879517,131.870728 180.293472,131.472534 
z"/>
<path fill="#4140DF" opacity="1.000000" stroke="none" 
	d="
M68.893738,71.830917 
	C67.287010,71.370117 65.698662,70.574356 63.954426,69.477112 
	C64.919403,69.118080 66.040260,69.060524 67.580597,69.004669 
	C68.304077,69.836227 68.608093,70.666084 68.893738,71.830917 
z"/>
<path fill="#4140DF" opacity="1.000000" stroke="none" 
	d="
M62.676414,68.099312 
	C61.951340,68.154549 61.158852,67.857544 60.174889,67.298187 
	C60.858612,67.272911 61.733807,67.509987 62.676414,68.099312 
z"/>
<path fill="#3D56E5" opacity="1.000000" stroke="none" 
	d="
M59.802090,66.790634 
	C59.361660,66.922874 58.763660,66.794579 58.047188,66.376129 
	C58.500645,66.234024 59.072586,66.382065 59.802090,66.790634 
z"/>
<path fill="#4140DF" opacity="1.000000" stroke="none" 
	d="
M63.792038,68.958481 
	C63.542610,69.098442 63.200760,68.962364 62.759785,68.565941 
	C63.006977,68.431213 63.353291,68.556831 63.792038,68.958481 
z"/>
<path fill="#3D56E5" opacity="1.000000" stroke="none" 
	d="
M57.830631,65.837219 
	C57.618271,65.937256 57.298607,65.793251 56.882603,65.400177 
	C57.098614,65.298470 57.410973,65.445824 57.830631,65.837219 
z"/>
<path fill="#4535DA" opacity="1.000000" stroke="none" 
	d="
M79.103065,154.777313 
	C79.648148,154.969116 80.193230,155.160919 81.037430,155.876190 
	C81.910263,156.581757 82.483971,156.763824 83.057686,156.945892 
	C83.057686,156.945892 82.994896,156.990036 83.060143,157.322739 
	C84.811516,158.387939 86.497643,159.120422 88.183769,159.852905 
	C88.183769,159.852905 88.092766,159.893005 88.173340,160.108002 
	C88.546585,160.529465 88.839249,160.735931 89.131920,160.942398 
	C89.131920,160.942398 89.035309,160.949875 89.186501,161.178619 
	C89.914391,161.582062 90.491096,161.756729 91.067795,161.931396 
	C91.067795,161.931396 91.059105,161.953537 91.072418,161.942047 
	C91.921181,164.798630 90.212730,166.866470 89.261955,169.361969 
	C87.534767,173.895294 87.157593,178.926956 86.010513,183.701050 
	C84.289894,190.862167 80.971535,192.780014 73.434479,190.967331 
	C72.566544,190.631439 72.094414,190.323975 71.331039,189.977112 
	C70.569382,189.629684 70.098969,189.321625 69.338287,188.972717 
	C68.917198,188.630264 68.717651,188.384521 68.236877,188.083313 
	C67.269508,187.637527 66.514626,187.303024 65.435631,186.928436 
	C65.077003,186.470184 65.042488,186.052017 65.002029,185.318710 
	C66.639656,184.811096 68.283226,184.618607 71.068817,184.292389 
	C70.865211,182.515762 70.480606,180.393326 70.432297,178.263245 
	C70.404526,177.038284 70.948212,175.806198 71.188713,174.568375 
	C72.471603,167.965607 73.739990,161.360001 75.345215,154.279297 
	C75.871475,153.675201 76.065926,153.547211 76.260384,153.419220 
	C76.260384,153.419220 76.356644,153.455597 76.352493,153.766937 
	C77.266579,154.311279 78.184822,154.544296 79.103065,154.777313 
z"/>
<path fill="#4535DA" opacity="1.000000" stroke="none" 
	d="
M70.060341,150.335297 
	C71.353333,150.745163 72.697159,151.504700 74.144897,152.587234 
	C72.869591,152.168503 71.490379,151.426743 70.060341,150.335297 
z"/>
<path fill="#482FD6" opacity="1.000000" stroke="none" 
	d="
M76.090233,153.263672 
	C76.065926,153.547211 75.871475,153.675201 75.341705,153.900314 
	C75.006386,153.997437 75.002480,153.564529 75.002258,153.348068 
	C75.305740,153.032120 75.611763,153.024292 76.090233,153.263672 
z"/>
<path fill="#3C4AE5" opacity="1.000000" stroke="none" 
	d="
M23.383232,163.953979 
	C23.101398,163.900131 23.036167,163.456894 23.323566,163.079971 
	C29.320938,156.202820 32.882446,148.849503 33.035385,140.001526 
	C33.119450,135.138229 33.906460,130.452148 39.279442,128.204681 
	C40.432686,130.329636 40.990978,132.504959 42.274014,134.095734 
	C43.529408,135.652222 45.523514,136.612930 47.193371,137.835144 
	C47.193371,137.835144 47.202240,137.852005 47.208366,137.834824 
	C47.928185,138.939819 48.641876,140.062012 49.520016,141.442764 
	C46.880795,147.894196 43.991234,154.680511 41.398174,161.578308 
	C40.982822,162.683182 41.892830,164.286972 42.192162,165.659683 
	C42.495792,167.052063 42.801937,168.443909 43.106979,169.835983 
	C41.276951,169.908554 39.395542,170.275940 37.631737,169.968536 
	C35.958431,169.676895 34.408283,168.678574 32.415432,167.980835 
	C30.626711,167.304184 29.226534,166.637695 27.434479,165.950226 
	C26.569885,165.622864 26.097172,165.316483 25.333321,164.971436 
	C24.583147,164.624466 24.124107,164.316162 23.383232,163.953979 
z"/>
<path fill="#4338DD" opacity="1.000000" stroke="none" 
	d="
M105.631981,56.006706 
	C108.043724,56.343704 110.082924,56.689095 112.515884,57.067001 
	C114.453590,58.448696 115.997536,59.797878 117.502235,61.112762 
	C116.543472,62.268597 115.858559,63.094280 114.749245,64.431595 
	C120.507210,65.393822 118.544952,68.170517 117.427948,71.399742 
	C115.751381,76.246681 114.532043,81.311066 113.714516,86.379166 
	C112.899429,91.432098 109.188774,91.496223 105.205170,92.153938 
	C104.841019,92.217995 104.875031,92.153419 104.794418,91.822800 
	C103.112587,86.696861 99.106277,86.221497 94.932686,86.046593 
	C94.932686,86.046593 94.982201,85.994675 94.986771,85.761810 
	C94.992882,85.350647 94.994431,85.172348 94.995987,84.994049 
	C98.007660,78.157822 101.425903,71.591965 100.389236,63.509445 
	C100.100273,61.256607 103.533684,58.526340 105.631981,56.006706 
z"/>
<path fill="#4936D8" opacity="1.000000" stroke="none" 
	d="
M91.912514,84.263245 
	C91.332741,84.271538 90.671524,83.991104 89.893028,83.466209 
	C90.460854,83.472679 91.145966,83.723602 91.912514,84.263245 
z"/>
<path fill="#4936D8" opacity="1.000000" stroke="none" 
	d="
M80.965668,78.552635 
	C80.514008,78.586311 80.027962,78.349693 79.293205,77.963547 
	C79.673424,77.970123 80.302361,78.126228 80.965668,78.552635 
z"/>
<path fill="#4936D8" opacity="1.000000" stroke="none" 
	d="
M83.804626,79.800949 
	C83.402176,79.882011 82.850609,79.703247 82.141518,79.273270 
	C82.541161,79.195084 83.098335,79.368103 83.804626,79.800949 
z"/>
<path fill="#4936D8" opacity="1.000000" stroke="none" 
	d="
M85.801910,80.870270 
	C85.394264,80.945259 84.847961,80.744537 84.130127,80.301964 
	C84.526810,80.238266 85.095032,80.416420 85.801910,80.870270 
z"/>
<path fill="#4936D8" opacity="1.000000" stroke="none" 
	d="
M87.797607,81.898041 
	C87.357079,82.003036 86.777473,81.819763 86.040863,81.370697 
	C86.475418,81.273201 87.066971,81.441490 87.797607,81.898041 
z"/>
<path fill="#4936D8" opacity="1.000000" stroke="none" 
	d="
M89.755348,82.966934 
	C89.303772,83.062172 88.740311,82.849564 88.011795,82.379333 
	C88.445648,82.300827 89.044548,82.479950 89.755348,82.966934 
z"/>
<path fill="#4936D8" opacity="1.000000" stroke="none" 
	d="
M94.652397,84.996483 
	C94.994431,85.172348 94.992882,85.350647 94.976715,85.796204 
	C94.395500,85.886879 93.828896,85.710281 93.098007,85.278458 
	C93.392082,85.015121 93.850441,85.007019 94.652397,84.996483 
z"/>
<path fill="#4140DF" opacity="1.000000" stroke="none" 
	d="
M72.799789,73.878563 
	C72.378288,73.956772 71.812775,73.752213 71.072952,73.294075 
	C71.484344,73.225601 72.070061,73.410690 72.799789,73.878563 
z"/>
<path fill="#4140DF" opacity="1.000000" stroke="none" 
	d="
M74.785065,74.897247 
	C74.348480,74.999107 73.773743,74.812111 73.033188,74.365967 
	C73.460556,74.274025 74.053726,74.441208 74.785065,74.897247 
z"/>
<path fill="#4140DF" opacity="1.000000" stroke="none" 
	d="
M69.846298,72.667847 
	C69.655602,72.780792 69.331123,72.694435 68.926247,72.351547 
	C69.182770,72.108147 69.471664,72.232658 69.846298,72.667847 
z"/>
<path fill="#3B4DE6" opacity="1.000000" stroke="none" 
	d="
M55.998272,63.001350 
	C55.876694,62.860268 55.756847,62.717834 55.636997,62.575405 
	C55.722565,62.624191 55.808132,62.672977 55.948189,62.859150 
	C56.002682,62.996540 56.000000,63.000000 55.998272,63.001350 
z"/>
<path fill="#3950E9" opacity="1.000000" stroke="none" 
	d="
M39.001755,127.999138 
	C33.906460,130.452148 33.119450,135.138229 33.035385,140.001526 
	C32.882446,148.849503 29.320938,156.202820 23.307405,162.856552 
	C23.003843,163.010056 22.521057,162.981674 22.280056,162.961426 
	C21.569660,162.631332 21.100266,162.321487 20.340309,161.971893 
	C19.920139,161.627090 19.715944,161.384995 19.213512,161.117645 
	C18.989864,161.029465 18.517059,160.987015 18.280899,160.963272 
	C17.914026,160.640106 17.716978,160.393753 17.243654,160.086853 
	C15.817686,158.828705 14.601655,157.684158 13.191862,156.273773 
	C15.104593,153.259476 16.112127,149.614899 19.800783,148.111130 
	C20.358994,147.883560 20.366884,146.053589 20.437428,144.952515 
	C20.509670,143.824905 20.059864,142.608917 20.329117,141.557205 
	C23.793173,128.026688 27.641321,114.587090 30.783312,100.983826 
	C33.411060,89.606956 35.238960,78.045334 37.711342,66.281876 
	C38.665379,67.612961 39.888042,69.221786 39.905212,70.843376 
	C40.054214,84.914558 39.986740,98.988037 39.626678,113.593071 
	C35.268120,117.297401 38.259129,120.665627 38.993530,123.970558 
	C38.676208,124.447113 38.358891,124.923668 38.127960,125.959549 
	C38.476814,127.012299 38.739285,127.505722 39.001755,127.999138 
z"/>
<path fill="#4044E0" opacity="1.000000" stroke="none" 
	d="
M39.279442,128.204681 
	C38.739285,127.505722 38.476814,127.012299 38.108624,126.259613 
	C38.743069,126.000610 39.483231,126.000862 40.593479,125.998604 
	C42.956516,129.727905 44.949471,133.459732 47.067898,137.513336 
	C45.523514,136.612930 43.529408,135.652222 42.274014,134.095734 
	C40.990978,132.504959 40.432686,130.329636 39.279442,128.204681 
z"/>
<path fill="#4936D8" opacity="1.000000" stroke="none" 
	d="
M95.139297,86.318604 
	C99.106277,86.221497 103.112587,86.696861 104.805542,91.856995 
	C101.713501,90.344757 98.529709,88.467690 95.139297,86.318604 
z"/>
<path fill="#482FD6" opacity="1.000000" stroke="none" 
	d="
M88.000031,159.574280 
	C86.497643,159.120422 84.811516,158.387939 83.088242,157.295181 
	C84.639496,157.721848 86.227890,158.508759 88.000031,159.574280 
z"/>
<path fill="#482FD6" opacity="1.000000" stroke="none" 
	d="
M78.911179,154.532440 
	C78.184822,154.544296 77.266579,154.311279 76.403488,153.760101 
	C77.212196,153.723831 77.965736,154.005707 78.911179,154.532440 
z"/>
<path fill="#482FD6" opacity="1.000000" stroke="none" 
	d="
M82.884232,156.701660 
	C82.483971,156.763824 81.910263,156.581757 81.195419,156.123245 
	C81.606445,156.050354 82.158615,156.253891 82.884232,156.701660 
z"/>
<path fill="#482FD6" opacity="1.000000" stroke="none" 
	d="
M90.948952,161.634277 
	C90.491096,161.756729 89.914391,161.582062 89.191902,161.130478 
	C89.640778,161.014771 90.235443,161.175980 90.948952,161.634277 
z"/>
<path fill="#482FD6" opacity="1.000000" stroke="none" 
	d="
M89.053093,160.670746 
	C88.839249,160.735931 88.546585,160.529465 88.174217,160.058289 
	C88.387772,159.995422 88.681023,160.197250 89.053093,160.670746 
z"/>
<path fill="#3C4AE5" opacity="1.000000" stroke="none" 
	d="
M39.288383,123.692535 
	C38.259129,120.665627 35.268120,117.297401 39.618694,114.061516 
	C39.839546,117.136650 39.711388,120.275581 39.288383,123.692535 
z"/>
<path fill="#4C21D0" opacity="1.000000" stroke="none" 
	d="
M180.625076,131.319458 
	C181.879517,131.870728 182.802368,132.575089 183.725204,133.279449 
	C182.797058,133.786591 181.868896,134.293747 180.940750,134.800903 
	C180.724991,133.691452 180.509232,132.581985 180.625076,131.319458 
z"/>
</svg>