<svg version="1.1" id="Layer_1" xmlns="http://www.w3.org/2000/svg" xmlns:xlink="http://www.w3.org/1999/xlink" x="0px" y="0px"
	 width="100%" viewBox="0 0 200 200" enable-background="new 0 0 200 200" xml:space="preserve">
<path fill="#F2F2F2" opacity="1.000000" stroke="none" 
	d="
M124.000000,201.000000 
	C82.692200,201.000000 41.884399,201.000000 1.038300,201.000000 
	C1.038300,134.400574 1.038300,67.801117 1.038300,1.100832 
	C67.557625,1.100832 134.115448,1.100832 200.836639,1.100832 
	C200.836639,67.666344 200.836639,134.333130 200.836639,201.000000 
	C175.468063,201.000000 149.984039,201.000000 124.000000,201.000000 
M102.497688,154.053955 
	C102.759827,153.984116 102.963959,153.834946 103.199326,153.368317 
	C103.199326,153.368317 103.093765,153.136993 103.767509,153.197937 
	C104.417801,153.021118 105.068100,152.844284 106.476112,152.830826 
	C110.974129,150.877991 115.472145,148.925171 120.631378,146.755554 
	C125.416336,143.805084 130.201294,140.854614 135.605179,137.647736 
	C140.429001,133.493103 145.252823,129.338470 150.702133,124.990692 
	C151.829453,123.732315 152.956772,122.473946 154.656860,120.882248 
	C155.864777,119.417671 157.072693,117.953094 158.893219,116.193321 
	C160.575653,114.122940 162.258087,112.052559 164.471848,109.594490 
	C165.395370,108.099503 166.318893,106.604515 167.774445,104.679794 
	C169.180130,102.119240 170.585800,99.558678 172.439789,96.622726 
	C172.620270,96.077202 172.800735,95.531670 173.144485,94.686913 
	C173.144485,94.686913 173.184982,94.348457 173.661392,93.811287 
	C174.511337,91.311241 175.361282,88.811188 176.638123,85.800270 
	C176.794052,84.938293 176.949982,84.076317 177.584030,82.628075 
	C177.950928,80.424736 178.317825,78.221397 178.857544,75.180717 
	C178.638367,72.751213 178.419174,70.321716 178.168427,67.216957 
	C177.795837,66.448814 177.423264,65.680664 177.040680,64.274521 
	C177.033249,63.849522 177.025833,63.424526 177.063797,62.334351 
	C176.737610,61.543541 176.411423,60.752731 175.975052,59.266453 
	C172.405762,55.778904 168.836487,52.291355 164.814377,48.266159 
	C162.209244,47.255676 159.604126,46.245193 156.182480,45.049145 
	C152.455185,44.736065 148.727905,44.422985 144.131744,44.027908 
	C141.088486,44.378983 138.045227,44.730057 134.197327,45.054806 
	C128.797226,46.662445 123.397118,48.270081 117.229034,49.938351 
	C114.532387,50.691570 111.835732,51.444790 108.523033,51.814293 
	C83.462837,37.703220 53.894627,42.977161 35.601574,64.906754 
	C25.106970,77.487617 21.777184,92.148834 22.995737,108.230553 
	C24.490210,127.953621 41.482170,149.241257 60.919365,154.756195 
	C61.605991,154.857834 62.292618,154.959457 63.413853,155.579041 
	C64.738892,155.804993 66.063927,156.030930 67.984627,156.807159 
	C70.645981,157.170944 73.307343,157.534729 76.478485,158.026947 
	C76.651039,157.996353 76.823586,157.965775 77.659966,158.111694 
	C78.113663,158.072174 78.567360,158.032654 79.917206,158.147263 
	C85.793083,157.144318 91.668961,156.141373 97.739456,155.293976 
	C97.739456,155.293976 97.943764,155.151413 98.644615,155.085373 
	C98.975174,154.777878 99.305733,154.470383 99.668587,154.385681 
	C99.668587,154.385681 99.893456,154.396286 100.645996,154.400665 
	C101.134132,154.292664 101.622269,154.184647 102.497688,154.053955 
z"/>
<path fill="#5EC7DC" opacity="1.000000" stroke="none" 
	d="
M60.273079,154.503830 
	C41.482170,149.241257 24.490210,127.953621 22.995737,108.230553 
	C21.777184,92.148834 25.106970,77.487617 35.601574,64.906754 
	C53.894627,42.977161 83.462837,37.703220 108.786102,52.225876 
	C109.049164,52.637463 109.015915,53.087486 108.713493,53.240856 
	C101.540611,57.649197 94.537544,61.710644 87.878159,66.273666 
	C85.802414,67.695976 84.655968,70.474541 82.631752,72.732285 
	C69.488632,72.069183 60.121681,77.330612 54.224628,88.544037 
	C50.687477,95.270042 50.538246,102.449226 51.819656,109.942047 
	C50.041328,117.094048 48.583134,124.045906 47.078411,131.406891 
	C48.035786,138.120178 48.504810,144.675659 54.920654,148.784561 
	C56.748032,150.902420 58.510555,152.703125 60.273079,154.503830 
z"/>
<path fill="#458E96" opacity="1.000000" stroke="none" 
	d="
M99.893456,154.396286 
	C99.893456,154.396286 99.668587,154.385681 99.310684,154.323456 
	C98.616447,154.557953 98.280106,154.854691 97.943764,155.151413 
	C97.943764,155.151413 97.739456,155.293976 97.159714,155.181259 
	C90.726997,156.043396 84.874031,157.018265 79.021057,157.993134 
	C78.567360,158.032654 78.113663,158.072174 77.347183,157.628632 
	C77.611992,156.458221 78.231247,155.146973 78.760567,155.182327 
	C82.969353,155.463394 85.588020,154.247330 85.184196,149.435501 
	C85.151878,149.050522 85.625565,148.587204 85.931038,148.215271 
	C89.280144,144.137619 92.642548,140.070892 96.390656,135.950287 
	C102.855957,133.602402 108.931946,131.305481 115.007980,129.407059 
	C116.035545,131.165009 117.063080,132.524445 118.090607,133.883881 
	C118.726051,132.256729 119.361496,130.629593 120.290527,128.874207 
	C121.389114,128.497009 122.194115,128.248047 123.150116,128.330566 
	C123.813965,131.045242 124.326805,133.428452 124.488808,135.874069 
	C119.883972,139.081039 113.821892,140.412582 113.011688,147.010712 
	C113.000610,147.000000 113.019653,147.022141 112.634346,147.012268 
	C110.862770,148.039444 109.476494,149.076477 108.064423,150.113113 
	C108.038635,150.112717 108.079819,150.083435 107.770119,150.081177 
	C106.990410,150.421738 106.520401,150.764542 106.065613,151.068771 
	C106.080841,151.030197 106.116348,151.105148 105.747467,151.075714 
	C104.616974,151.743179 103.855370,152.440079 103.093765,153.136993 
	C103.093765,153.136993 103.199326,153.368317 102.949638,153.330597 
	C102.538574,153.235474 102.377205,153.178070 101.856918,153.120255 
	C100.963150,153.545319 100.428307,153.970810 99.893456,154.396286 
z"/>
<path fill="#3A8994" opacity="1.000000" stroke="none" 
	d="
M96.001343,136.001221 
	C92.642548,140.070892 89.280144,144.137619 85.931038,148.215271 
	C85.625565,148.587204 85.151878,149.050522 85.184196,149.435501 
	C85.588020,154.247330 82.969353,155.463394 78.760567,155.182327 
	C78.231247,155.146973 77.611992,156.458221 77.015274,157.540375 
	C76.823586,157.965775 76.651039,157.996353 75.972321,157.682709 
	C72.773766,156.977936 70.081367,156.617401 67.388969,156.256866 
	C66.063927,156.030930 64.738892,155.804993 63.236523,154.967621 
	C67.762459,148.098480 70.637535,140.216965 78.732941,136.940872 
	C79.439560,136.654922 79.596054,135.009583 80.399414,133.995605 
	C83.982666,133.769775 87.010414,133.336624 87.231010,128.955750 
	C87.781586,128.862427 88.108414,128.887970 88.730942,128.866028 
	C89.343735,128.591309 89.660820,128.364090 90.192978,128.002823 
	C90.575623,127.847153 90.743195,127.825546 91.052185,128.132614 
	C92.796188,130.974594 94.398773,133.487915 96.001343,136.001221 
z"/>
<path fill="#338593" opacity="1.000000" stroke="none" 
	d="
M80.008072,133.995667 
	C79.596054,135.009583 79.439560,136.654922 78.732941,136.940872 
	C70.637535,140.216965 67.762459,148.098480 63.019218,154.708649 
	C62.292618,154.959457 61.605991,154.857834 60.596222,154.630005 
	C58.510555,152.703125 56.748032,150.902420 54.960266,148.328247 
	C54.133110,142.005814 58.190136,138.803879 61.396698,134.998474 
	C65.517944,134.537094 69.184990,133.971130 71.375839,130.005951 
	C74.500137,131.339233 77.254105,132.667450 80.008072,133.995667 
z"/>
<path fill="#E5BEB2" opacity="1.000000" stroke="none" 
	d="
M150.076645,125.183838 
	C145.252823,129.338470 140.429001,133.493103 135.246490,137.402985 
	C134.256500,134.439651 133.625198,131.721039 133.356125,128.960022 
	C134.928299,127.778244 136.363586,126.796402 137.295670,125.462852 
	C138.712189,123.436172 139.779617,121.165512 141.360977,119.004105 
	C144.509979,121.067780 147.293320,123.125809 150.076645,125.183838 
z"/>
<path fill="#AD9CC6" opacity="1.000000" stroke="none" 
	d="
M109.015915,53.087486 
	C109.015915,53.087486 109.049164,52.637463 109.094124,52.417736 
	C111.835732,51.444790 114.532387,50.691570 117.526260,50.203552 
	C123.141701,56.624645 129.042862,57.095730 137.386475,51.999268 
	C139.515198,51.665390 141.256836,51.331783 142.998779,51.331917 
	C142.999588,52.110638 143.000092,52.555626 142.798279,53.266209 
	C140.728027,55.353138 138.860092,57.174469 136.548370,58.996368 
	C130.087219,58.990772 124.069862,58.984615 117.800446,58.968689 
	C117.380592,58.947964 117.212784,58.937008 117.023422,58.953857 
	C117.001877,58.981663 117.071663,58.972733 117.022537,58.740414 
	C116.973412,58.508095 116.773933,58.077110 116.673309,57.763412 
	C114.053764,55.995636 111.534843,54.541561 109.015915,53.087486 
z"/>
<path fill="#BA9DC7" opacity="1.000000" stroke="none" 
	d="
M136.999390,51.999542 
	C129.042862,57.095730 123.141701,56.624645 117.910255,50.173233 
	C123.397118,48.270081 128.797226,46.662445 134.663910,45.396713 
	C138.093582,47.127071 137.454971,49.590622 136.999390,51.999542 
z"/>
<path fill="#D9BEB0" opacity="1.000000" stroke="none" 
	d="
M132.993896,129.002441 
	C133.625198,131.721039 134.256500,134.439651 134.937012,137.531189 
	C130.201294,140.854614 125.416336,143.805084 120.316467,146.483032 
	C120.336327,144.476044 120.671097,142.741577 121.142372,140.727432 
	C122.434654,139.262695 123.590431,138.077637 125.016602,136.813263 
	C125.473503,136.422211 125.660004,136.110504 125.886177,135.836151 
	C125.925850,135.873535 125.816833,135.872192 126.102112,135.746719 
	C126.574837,135.050613 126.762291,134.479996 127.022652,133.705200 
	C127.225990,133.229462 127.426178,133.026794 128.003525,132.777954 
	C128.520645,132.072250 128.730362,131.481598 128.981918,130.608215 
	C129.350754,129.884567 129.677734,129.443619 130.328949,129.005493 
	C131.084717,128.996063 131.516235,128.983795 132.209259,128.980042 
	C132.645157,128.993179 132.819534,128.997818 132.993896,129.002441 
z"/>
<path fill="#89AECA" opacity="1.000000" stroke="none" 
	d="
M177.018402,62.999527 
	C177.025833,63.424526 177.033249,63.849522 176.869232,64.919891 
	C173.799530,66.377426 170.901291,67.189598 167.700531,67.848595 
	C163.551712,63.414097 158.440018,61.852936 153.065002,60.650475 
	C155.752319,59.201778 158.374634,58.100163 161.206314,57.269821 
	C166.616592,59.360573 171.817490,61.180050 177.018402,62.999527 
z"/>
<path fill="#AD82B5" opacity="1.000000" stroke="none" 
	d="
M176.211243,86.311134 
	C175.361282,88.811188 174.511337,91.311241 173.367767,93.643311 
	C172.693848,91.254379 173.587524,87.151878 169.758499,88.448799 
	C162.494263,90.909286 155.081100,93.593475 149.598511,99.995621 
	C148.132980,99.998077 147.067093,99.998543 146.110947,99.741585 
	C146.479431,98.988937 146.738190,98.493706 147.178711,97.743332 
	C147.907791,96.659714 148.455124,95.831230 149.353119,94.960968 
	C152.488083,93.140495 155.095810,90.946404 158.094421,89.672081 
	C163.828415,87.235321 169.361771,82.974541 176.211243,86.311134 
z"/>
<path fill="#AEABC9" opacity="1.000000" stroke="none" 
	d="
M143.000610,53.000610 
	C143.000092,52.555626 142.999588,52.110638 143.167786,51.009693 
	C143.891205,48.272457 144.445908,46.191181 145.000610,44.109905 
	C148.727905,44.422985 152.455185,44.736065 156.580658,45.477684 
	C155.319641,47.936974 153.660431,49.967728 151.601074,52.052536 
	C148.467484,52.404598 145.734055,52.702606 143.000610,53.000610 
z"/>
<path fill="#B87CB2" opacity="1.000000" stroke="none" 
	d="
M149.998169,99.993614 
	C155.081100,93.593475 162.494263,90.909286 169.758499,88.448799 
	C173.587524,87.151878 172.693848,91.254379 173.129578,93.911896 
	C173.184982,94.348457 173.144485,94.686913 172.796814,94.598450 
	C171.725479,93.706047 171.107147,92.348450 170.261215,92.187553 
	C164.544754,91.100288 157.952835,95.278839 155.612915,101.004059 
	C153.487854,101.341446 151.746246,101.669579 150.003448,101.663742 
	C150.000916,100.884384 149.999542,100.438995 149.998169,99.993614 
z"/>
<path fill="#A387BA" opacity="1.000000" stroke="none" 
	d="
M176.424683,86.055702 
	C169.361771,82.974541 163.828415,87.235321 158.094421,89.672081 
	C155.095810,90.946404 152.488083,93.140495 149.351624,94.959381 
	C148.999435,94.999565 148.995224,94.995117 149.038605,94.648483 
	C153.972946,90.940254 158.863373,87.577843 163.755325,84.217690 
	C164.835327,83.475861 165.920837,82.742020 167.420044,82.002060 
	C169.404144,81.693726 171.028046,80.984268 172.524567,81.192085 
	C174.114624,81.412903 175.583893,82.503532 177.105896,83.214340 
	C176.949982,84.076317 176.794052,84.938293 176.424683,86.055702 
z"/>
<path fill="#D38EAD" opacity="1.000000" stroke="none" 
	d="
M163.940536,109.982178 
	C162.258087,112.052559 160.575653,114.122940 158.375992,115.998459 
	C154.906662,114.535233 151.954544,113.266853 149.001465,111.582253 
	C149.001755,109.778778 149.003021,108.391525 149.441467,107.003006 
	C151.918900,107.000443 153.959137,106.999153 156.214630,107.275909 
	C158.933411,108.363365 161.436981,109.172768 163.940536,109.982178 
z"/>
<path fill="#A3B3CB" opacity="1.000000" stroke="none" 
	d="
M152.001221,51.998474 
	C153.660431,49.967728 155.319641,47.936974 156.988922,45.570465 
	C159.604126,46.245193 162.209244,47.255676 164.733734,48.756344 
	C164.102142,50.828545 163.551178,52.410557 162.666245,53.994553 
	C161.886963,53.998760 161.441650,54.000984 160.578690,54.002121 
	C157.441162,54.333385 154.721268,54.665737 152.001328,54.623154 
	C152.001251,53.498306 152.001236,52.748390 152.001221,51.998474 
z"/>
<path fill="#8EB6CB" opacity="1.000000" stroke="none" 
	d="
M160.996338,54.003204 
	C161.441650,54.000984 161.886963,53.998760 163.020569,54.152817 
	C167.834305,56.193371 171.959778,58.077644 176.085236,59.961922 
	C176.411423,60.752731 176.737610,61.543541 177.041107,62.666939 
	C171.817490,61.180050 166.616592,59.360573 161.206726,56.895393 
	C160.997284,55.500858 160.996811,54.752033 160.996338,54.003204 
z"/>
<path fill="#CB74AA" opacity="1.000000" stroke="none" 
	d="
M171.991486,96.998123 
	C170.585800,99.558678 169.180130,102.119240 167.110321,104.824753 
	C163.299225,103.980820 160.152267,102.991936 157.004639,101.752266 
	C157.005081,101.334320 157.006195,101.167160 157.332001,100.852676 
	C162.434952,99.469604 167.213211,98.233864 171.991486,96.998123 
z"/>
<path fill="#C175AE" opacity="1.000000" stroke="none" 
	d="
M172.215637,96.810425 
	C167.213211,98.233864 162.434952,99.469604 157.079208,100.851944 
	C156.333267,100.997284 156.164810,100.996048 155.996338,100.994812 
	C157.952835,95.278839 164.544754,91.100288 170.261215,92.187553 
	C171.107147,92.348450 171.725479,93.706047 172.715179,94.748070 
	C172.800735,95.531670 172.620270,96.077202 172.215637,96.810425 
z"/>
<path fill="#D99CAE" opacity="1.000000" stroke="none" 
	d="
M149.002441,111.998474 
	C151.954544,113.266853 154.906662,114.535233 158.069687,116.146057 
	C157.072693,117.953094 155.864777,119.417671 154.210052,120.716904 
	C150.841171,119.033852 147.919113,117.516136 144.900024,115.749863 
	C144.865814,114.667336 144.928635,113.833366 145.336655,112.963287 
	C146.788727,112.617615 147.895584,112.308044 149.002441,111.998474 
z"/>
<path fill="#96A1C4" opacity="1.000000" stroke="none" 
	d="
M178.199997,67.892212 
	C178.419174,70.321716 178.638367,72.751213 178.385468,75.610954 
	C173.945328,76.694130 169.977234,77.347069 166.007172,77.748444 
	C166.004593,77.329193 166.003967,77.161484 166.141998,76.712151 
	C167.188843,75.287674 168.097046,74.144829 169.385590,72.994476 
	C172.577286,71.288719 175.388641,69.590462 178.199997,67.892212 
z"/>
<path fill="#B6A5C8" opacity="1.000000" stroke="none" 
	d="
M144.566177,44.068909 
	C144.445908,46.191181 143.891205,48.272457 143.167480,50.675957 
	C141.256836,51.331783 139.515198,51.665390 137.386475,51.999268 
	C137.454971,49.590622 138.093582,47.127071 135.066238,45.409882 
	C138.045227,44.730057 141.088486,44.378983 144.566177,44.068909 
z"/>
<path fill="#D080AB" opacity="1.000000" stroke="none" 
	d="
M157.005310,102.003052 
	C160.152267,102.991936 163.299225,103.980820 166.844299,105.039612 
	C166.318893,106.604515 165.395370,108.099503 164.206192,109.788330 
	C161.436981,109.172768 158.933411,108.363365 156.220490,106.907608 
	C156.342514,104.841866 156.673920,103.422462 157.005310,102.003052 
z"/>
<path fill="#E0AAAF" opacity="1.000000" stroke="none" 
	d="
M144.997055,115.998421 
	C147.919113,117.516136 150.841171,119.033852 153.923660,120.883560 
	C152.956772,122.473946 151.829453,123.732315 150.389389,125.087265 
	C147.293320,123.125809 144.509979,121.067780 141.252548,118.746735 
	C140.518570,117.990067 140.258682,117.496407 140.367401,116.995468 
	C142.156372,116.658272 143.576706,116.328346 144.997055,115.998421 
z"/>
<path fill="#9B94BE" opacity="1.000000" stroke="none" 
	d="
M166.009155,78.000000 
	C169.977234,77.347069 173.945328,76.694130 178.299072,76.029625 
	C178.317825,78.221397 177.950928,80.424736 177.344971,82.921204 
	C175.583893,82.503532 174.114624,81.412903 172.524567,81.192085 
	C171.028046,80.984268 169.404144,81.693726 167.204376,81.886978 
	C166.303329,81.572914 166.111679,81.314095 165.998260,80.623154 
	C166.002350,79.498962 166.005753,78.749481 166.009155,78.000000 
z"/>
<path fill="#9EBEC9" opacity="1.000000" stroke="none" 
	d="
M176.030151,59.614185 
	C171.959778,58.077644 167.834305,56.193371 163.354523,54.150833 
	C163.551178,52.410557 164.102142,50.828545 164.960144,49.025169 
	C168.836487,52.291355 172.405762,55.778904 176.030151,59.614185 
z"/>
<path fill="#BFBBB5" opacity="1.000000" stroke="none" 
	d="
M121.005859,141.007126 
	C120.671097,142.741577 120.336327,144.476044 119.985870,146.591431 
	C115.472145,148.925171 110.974129,150.877991 106.167374,152.489777 
	C105.944534,151.800858 106.030449,151.453003 106.116348,151.105148 
	C106.116348,151.105148 106.080841,151.030197 106.369461,151.057312 
	C107.131996,150.750778 107.605904,150.417099 108.079819,150.083435 
	C108.079819,150.083435 108.038635,150.112717 108.394066,150.066498 
	C110.172882,149.020920 111.596268,148.021530 113.019653,147.022141 
	C113.019653,147.022141 113.000610,147.000000 113.325943,146.893677 
	C116.102798,144.860626 118.554329,142.933884 121.005859,141.007126 
z"/>
<path fill="#8CA6C6" opacity="1.000000" stroke="none" 
	d="
M178.184204,67.554581 
	C175.388641,69.590462 172.577286,71.288719 169.224915,72.755737 
	C168.122391,72.016335 167.560883,71.508163 167.127167,70.706665 
	C167.504303,69.609474 167.753677,68.805626 168.003052,68.001770 
	C170.901291,67.189598 173.799530,66.377426 176.874222,65.238892 
	C177.423264,65.680664 177.795837,66.448814 178.184204,67.554581 
z"/>
<path fill="#528C94" opacity="1.000000" stroke="none" 
	d="
M79.469131,158.070190 
	C84.874031,157.018265 90.726997,156.043396 97.062408,155.103485 
	C91.668961,156.141373 85.793083,157.144318 79.469131,158.070190 
z"/>
<path fill="#528C94" opacity="1.000000" stroke="none" 
	d="
M67.686798,156.532013 
	C70.081367,156.617401 72.773766,156.977936 75.717430,157.618500 
	C73.307343,157.534729 70.645981,157.170944 67.686798,156.532013 
z"/>
<path fill="#528C94" opacity="1.000000" stroke="none" 
	d="
M105.747467,151.075714 
	C106.030449,151.453003 105.944534,151.800858 105.788513,152.408081 
	C105.068100,152.844284 104.417801,153.021118 103.430634,153.167465 
	C103.855370,152.440079 104.616974,151.743179 105.747467,151.075714 
z"/>
<path fill="#528C94" opacity="1.000000" stroke="none" 
	d="
M100.269730,154.398468 
	C100.428307,153.970810 100.963150,153.545319 101.809280,153.356567 
	C102.120575,153.593307 102.110405,154.076645 102.110405,154.076645 
	C101.622269,154.184647 101.134132,154.292664 100.269730,154.398468 
z"/>
<path fill="#BFBBB5" opacity="1.000000" stroke="none" 
	d="
M102.304047,154.065308 
	C102.110405,154.076645 102.120575,153.593307 102.168213,153.356995 
	C102.377205,153.178070 102.538574,153.235474 102.905014,153.449646 
	C102.963959,153.834946 102.759827,153.984116 102.304047,154.065308 
z"/>
<path fill="#528C94" opacity="1.000000" stroke="none" 
	d="
M98.294189,155.118393 
	C98.280106,154.854691 98.616447,154.557953 99.294540,154.212051 
	C99.305733,154.470383 98.975174,154.777878 98.294189,155.118393 
z"/>
<path fill="#EFF2F2" opacity="1.000000" stroke="none" 
	d="
M88.435234,128.913513 
	C88.108414,128.887970 87.781586,128.862427 86.813324,128.936218 
	C81.200104,128.930359 76.228317,128.825195 71.240067,128.728424 
	C71.223595,128.736786 71.198830,128.764191 71.007828,128.521927 
	C70.220535,128.153290 69.624245,128.026901 68.791061,127.662811 
	C60.408333,124.013184 55.635738,117.470062 52.139790,109.741898 
	C50.538246,102.449226 50.687477,95.270042 54.224628,88.544037 
	C60.121681,77.330612 69.488632,72.069183 82.995926,72.822639 
	C84.553658,72.843231 85.294853,72.873512 86.332031,73.089188 
	C88.786339,74.078911 90.944649,74.883247 93.380356,75.890366 
	C101.250374,81.146645 106.598785,87.761353 108.138351,97.372223 
	C108.210449,98.516342 108.337288,99.275848 108.391876,100.361916 
	C108.391975,101.123611 108.464325,101.558754 108.417572,102.320999 
	C108.306076,103.109108 108.313675,103.570114 108.234207,104.271652 
	C108.173737,104.680649 108.200333,104.849121 108.129631,105.398331 
	C107.853539,106.812439 107.674744,107.845795 107.323593,109.158249 
	C106.443367,111.295723 105.735481,113.154099 104.790169,115.245041 
	C101.322021,118.903175 98.091293,122.328751 94.540375,125.812759 
	C93.117050,126.515442 92.013908,127.159691 90.910759,127.803940 
	C90.743195,127.825546 90.575623,127.847153 89.885406,128.012024 
	C89.053589,128.408020 88.744415,128.660751 88.435234,128.913513 
z"/>
<path fill="#2D7E91" opacity="1.000000" stroke="none" 
	d="
M51.819656,109.942047 
	C55.635738,117.470062 60.408333,124.013184 68.966637,127.932114 
	C69.985680,128.547470 70.592255,128.655838 71.198830,128.764191 
	C71.198830,128.764191 71.223595,128.736786 71.155670,129.045029 
	C71.060333,129.569138 71.032913,129.785019 71.005493,130.000885 
	C69.184990,133.971130 65.517944,134.537094 61.254906,134.682220 
	C59.305130,132.074554 58.512775,129.235916 54.524010,130.611099 
	C52.279953,131.384766 49.605495,130.910065 47.124935,130.997757 
	C48.583134,124.045906 50.041328,117.094048 51.819656,109.942047 
z"/>
<path fill="#3E7DA8" opacity="1.000000" stroke="none" 
	d="
M86.036049,72.903793 
	C85.294853,72.873512 84.553658,72.843231 83.448288,72.722595 
	C84.655968,70.474541 85.802414,67.695976 87.878159,66.273666 
	C94.537544,61.710644 101.540611,57.649197 108.713493,53.240856 
	C111.534843,54.541561 114.053764,55.995636 116.559235,57.879387 
	C116.721077,58.530285 116.896370,58.751507 117.071663,58.972733 
	C117.071663,58.972733 117.001877,58.981663 116.996887,59.342880 
	C116.311188,60.392731 115.328789,61.802818 114.994469,61.663025 
	C108.847954,59.092899 104.243126,63.560772 98.648560,65.074234 
	C96.831734,69.847420 93.008240,71.183746 88.722580,71.931549 
	C87.798645,72.092773 86.930099,72.571381 86.036049,72.903793 
z"/>
<path fill="#2C8293" opacity="1.000000" stroke="none" 
	d="
M47.078411,131.406891 
	C49.605495,130.910065 52.279953,131.384766 54.524010,130.611099 
	C58.512775,129.235916 59.305130,132.074554 60.857929,134.683136 
	C58.190136,138.803879 54.133110,142.005814 54.895416,148.011093 
	C48.504810,144.675659 48.035786,138.120178 47.078411,131.406891 
z"/>
<path fill="#428595" opacity="1.000000" stroke="none" 
	d="
M91.052185,128.132614 
	C92.013908,127.159691 93.117050,126.515442 94.803650,126.126358 
	C98.518265,125.938377 101.666107,125.588905 104.777481,125.034714 
	C114.549080,123.294189 123.035080,118.709702 131.314346,113.028519 
	C132.417725,113.371132 133.202957,113.686798 133.844727,114.335724 
	C132.499939,119.019447 130.888718,122.920799 125.990280,124.545029 
	C124.748039,124.956932 123.983276,126.808846 122.999123,127.999084 
	C122.194115,128.248047 121.389114,128.497009 119.874725,128.874115 
	C117.779533,129.004364 116.393738,129.006454 115.007935,129.008545 
	C108.931946,131.305481 102.855957,133.602402 96.390656,135.950287 
	C94.398773,133.487915 92.796188,130.974594 91.052185,128.132614 
z"/>
<path fill="#528C94" opacity="1.000000" stroke="none" 
	d="
M123.150116,128.330566 
	C123.983276,126.808846 124.748039,124.956932 125.990280,124.545029 
	C130.888718,122.920799 132.499939,119.019447 133.948624,114.173843 
	C134.473221,113.810661 134.750473,113.942627 135.110046,114.334343 
	C135.235703,114.770515 135.279022,114.946938 135.175293,115.454895 
	C134.700302,117.187271 134.372345,118.588104 133.985458,120.194183 
	C133.926529,120.399429 133.901611,120.825783 133.649231,121.046539 
	C132.924057,122.504639 132.451248,123.741989 131.756851,125.169235 
	C131.354721,125.904457 131.174194,126.449783 130.762695,127.176483 
	C130.356049,127.906120 130.180374,128.454391 130.004715,129.002670 
	C129.677734,129.443619 129.350754,129.884567 128.736206,130.787659 
	C128.197800,131.797562 127.946953,132.345291 127.696121,132.893021 
	C127.426178,133.026794 127.225990,133.229462 126.773392,133.870453 
	C126.239761,134.783981 126.028297,135.328079 125.816833,135.872192 
	C125.816833,135.872192 125.925850,135.873535 125.664261,135.852539 
	C125.402679,135.831528 124.982605,135.982849 124.945923,135.940826 
	C124.909248,135.898819 124.839653,135.811661 124.839653,135.811661 
	C124.326805,133.428452 123.813965,131.045242 123.150116,128.330566 
z"/>
<path fill="#528C94" opacity="1.000000" stroke="none" 
	d="
M121.142365,140.727432 
	C118.554329,142.933884 116.102798,144.860626 113.337021,146.904404 
	C113.821892,140.412582 119.883972,139.081039 124.488808,135.874069 
	C124.839653,135.811661 124.909248,135.898819 124.871422,136.164246 
	C124.833595,136.429657 124.746208,136.892593 124.746208,136.892593 
	C123.590431,138.077637 122.434654,139.262695 121.142365,140.727432 
z"/>
<path fill="#528C94" opacity="1.000000" stroke="none" 
	d="
M115.007980,129.407059 
	C116.393738,129.006454 117.779533,129.004364 119.581146,129.002350 
	C119.361496,130.629593 118.726051,132.256729 118.090607,133.883881 
	C117.063080,132.524445 116.035545,131.165009 115.007980,129.407059 
z"/>
<path fill="#528C94" opacity="1.000000" stroke="none" 
	d="
M112.634346,147.012268 
	C111.596268,148.021530 110.172882,149.020920 108.419861,150.066895 
	C109.476494,149.076477 110.862770,148.039444 112.634346,147.012268 
z"/>
<path fill="#528C94" opacity="1.000000" stroke="none" 
	d="
M107.770111,150.081177 
	C107.605904,150.417099 107.131996,150.750778 106.354240,151.095886 
	C106.520401,150.764542 106.990410,150.421738 107.770111,150.081177 
z"/>
<path fill="#428595" opacity="1.000000" stroke="none" 
	d="
M71.375839,130.005951 
	C71.032913,129.785019 71.060333,129.569138 71.172150,129.036652 
	C76.228317,128.825195 81.200104,128.930359 86.589569,129.055054 
	C87.010414,133.336624 83.982666,133.769775 80.399414,133.995605 
	C77.254105,132.667450 74.500137,131.339233 71.375839,130.005951 
z"/>
<path fill="#3E7E92" opacity="1.000000" stroke="none" 
	d="
M88.730942,128.866013 
	C88.744415,128.660751 89.053589,128.408020 89.670334,128.146088 
	C89.660820,128.364090 89.343735,128.591309 88.730942,128.866013 
z"/>
<path fill="#D9B8AE" opacity="1.000000" stroke="none" 
	d="
M130.993668,126.995110 
	C131.174194,126.449783 131.354721,125.904457 132.121857,125.103050 
	C133.106186,123.506569 133.503906,122.166176 133.901611,120.825783 
	C133.901611,120.825783 133.926529,120.399429 134.266998,120.052155 
	C135.074371,118.809875 135.541306,117.914879 136.407272,117.014610 
	C137.870468,117.007141 138.934631,117.004944 139.998779,117.002747 
	C140.258682,117.496407 140.518570,117.990067 140.886887,118.741104 
	C139.779617,121.165512 138.712189,123.436172 137.295670,125.462852 
	C136.363586,126.796402 134.928299,127.778244 133.356125,128.960022 
	C132.819534,128.997818 132.645157,128.993179 132.195404,128.688934 
	C131.611252,127.924599 131.302460,127.459854 130.993668,126.995110 
z"/>
<path fill="#3B74A3" opacity="1.000000" stroke="none" 
	d="
M99.000610,65.002747 
	C104.243126,63.560772 108.847954,59.092899 114.994469,61.663025 
	C115.328789,61.802818 116.311188,60.392731 117.018433,59.315071 
	C117.212784,58.937008 117.380592,58.947964 117.926727,59.274628 
	C120.476639,61.421757 122.648209,63.253174 124.897308,65.387619 
	C125.623642,66.472771 126.272461,67.254890 126.949867,68.358849 
	C127.057701,69.311012 127.136940,69.941330 127.050774,70.822891 
	C125.923492,70.395592 125.015930,69.615730 123.986183,69.063843 
	C122.659126,68.352600 121.244667,67.346191 119.849289,67.315689 
	C116.906128,67.251366 113.950890,67.739090 110.669724,67.854630 
	C108.439590,67.884087 106.522179,67.949409 104.645348,68.260017 
	C101.806274,68.729874 99.198494,69.016212 99.000610,65.002747 
z"/>
<path fill="#9F98C7" opacity="1.000000" stroke="none" 
	d="
M124.819778,65.084595 
	C122.648209,63.253174 120.476639,61.421757 118.178787,59.284393 
	C124.069862,58.984615 130.087219,58.990772 136.844910,59.022404 
	C138.055832,59.366150 138.526413,59.684425 138.795624,60.270477 
	C134.197678,62.644314 130.907303,68.101845 124.819778,65.084595 
z"/>
<path fill="#A3A3CB" opacity="1.000000" stroke="none" 
	d="
M138.997009,60.002705 
	C138.526413,59.684425 138.055832,59.366150 137.288696,59.021835 
	C138.860092,57.174469 140.728027,55.353138 142.798279,53.266209 
	C145.734055,52.702606 148.467484,52.404598 151.601074,52.052532 
	C152.001236,52.748390 152.001251,53.498306 151.678207,54.769238 
	C148.237167,56.859753 145.119186,58.429253 141.625702,59.999306 
	C140.499146,60.000809 139.748077,60.001759 138.997009,60.002705 
z"/>
<path fill="#3B74A3" opacity="1.000000" stroke="none" 
	d="
M117.022537,58.740410 
	C116.896370,58.751507 116.721077,58.530285 116.659851,58.193085 
	C116.773933,58.077110 116.973412,58.508095 117.022537,58.740410 
z"/>
<path fill="#BFBBB5" opacity="1.000000" stroke="none" 
	d="
M130.762695,127.176483 
	C131.302460,127.459854 131.611252,127.924599 131.933899,128.680435 
	C131.516235,128.983795 131.084717,128.996063 130.328949,129.005493 
	C130.180374,128.454391 130.356049,127.906120 130.762695,127.176483 
z"/>
<path fill="#BFBBB5" opacity="1.000000" stroke="none" 
	d="
M128.003525,132.777954 
	C127.946953,132.345291 128.197800,131.797562 128.694336,131.070389 
	C128.730362,131.481598 128.520645,132.072250 128.003525,132.777954 
z"/>
<path fill="#BFBBB5" opacity="1.000000" stroke="none" 
	d="
M126.102112,135.746719 
	C126.028297,135.328079 126.239761,134.783981 126.700485,134.074615 
	C126.762291,134.479996 126.574837,135.050613 126.102112,135.746719 
z"/>
<path fill="#BFBBB5" opacity="1.000000" stroke="none" 
	d="
M125.016602,136.813263 
	C124.746208,136.892593 124.833595,136.429657 124.908096,136.206253 
	C124.982605,135.982849 125.402679,135.831528 125.624588,135.815155 
	C125.660004,136.110504 125.473503,136.422211 125.016602,136.813263 
z"/>
<path fill="#84A6CB" opacity="1.000000" stroke="none" 
	d="
M167.700531,67.848595 
	C167.753677,68.805626 167.504303,69.609474 166.721252,70.706665 
	C164.125656,71.332794 162.063751,71.665581 159.958038,71.647812 
	C156.928787,67.566978 153.603378,64.912323 148.320099,66.658562 
	C146.687561,67.198151 144.781906,66.911438 143.000244,66.751526 
	C142.998032,66.332314 142.996872,66.164635 143.142029,65.705414 
	C143.860306,64.277283 144.432281,63.140678 145.415894,62.003342 
	C148.218338,61.667591 150.609177,61.332573 153.000000,60.997559 
	C158.440018,61.852936 163.551712,63.414097 167.700531,67.848595 
z"/>
<path fill="#96A9CC" opacity="1.000000" stroke="none" 
	d="
M153.065002,60.650475 
	C150.609177,61.332573 148.218338,61.667591 145.133881,61.879494 
	C143.627228,61.170498 142.814224,60.584625 142.001205,59.998749 
	C145.119186,58.429253 148.237167,56.859753 151.678268,55.144169 
	C154.721268,54.665737 157.441162,54.333385 160.578674,54.002121 
	C160.996811,54.752033 160.997284,55.500858 160.997345,56.624115 
	C158.374634,58.100163 155.752319,59.201778 153.065002,60.650475 
z"/>
<path fill="#A48FB7" opacity="1.000000" stroke="none" 
	d="
M146.996948,97.998474 
	C146.738190,98.493706 146.479431,98.988937 145.799103,99.902344 
	C142.926529,101.880753 140.475525,103.440971 137.992523,105.297234 
	C137.637787,106.061134 137.315048,106.528984 136.961670,106.598114 
	C136.975204,105.134430 137.019409,104.069481 137.317413,102.739609 
	C138.289520,100.037262 137.674316,96.524490 142.327850,96.993492 
	C143.108185,96.997299 143.554092,96.998344 144.212555,97.254059 
	C145.282379,97.671974 146.139664,97.835228 146.996948,97.998474 
z"/>
<path fill="#B38EB4" opacity="1.000000" stroke="none" 
	d="
M138.024521,105.001175 
	C140.475525,103.440971 142.926529,101.880753 145.689362,100.159775 
	C147.067093,99.998543 148.132980,99.998077 149.598511,99.995621 
	C149.999542,100.438995 150.000916,100.884384 149.891571,101.921837 
	C149.517410,103.009811 149.253967,103.505722 148.577057,104.012543 
	C144.783905,104.349365 141.404221,104.675270 138.024521,105.001175 
z"/>
<path fill="#A387BA" opacity="1.000000" stroke="none" 
	d="
M147.178711,97.743332 
	C146.139664,97.835228 145.282379,97.671974 144.424225,96.981689 
	C145.947311,95.968140 147.471268,95.481628 148.995224,94.995117 
	C148.995224,94.995117 148.999435,94.999565 149.000946,95.001160 
	C148.455124,95.831230 147.907791,96.659714 147.178711,97.743332 
z"/>
<path fill="#C586B0" opacity="1.000000" stroke="none" 
	d="
M148.990509,104.001625 
	C149.253967,103.505722 149.517410,103.009811 149.892746,102.255814 
	C151.746246,101.669579 153.487854,101.341446 155.612915,101.004059 
	C156.164810,100.996048 156.333267,100.997284 156.754532,100.999268 
	C157.006195,101.167160 157.005081,101.334320 157.004639,101.752266 
	C156.673920,103.422462 156.342514,104.841866 156.005249,106.629562 
	C153.959137,106.999153 151.918900,107.000443 149.187698,107.001991 
	C148.327606,107.002106 148.158478,107.001953 148.020599,106.683670 
	C148.364746,105.577560 148.677628,104.789597 148.990509,104.001625 
z"/>
<path fill="#9989BD" opacity="1.000000" stroke="none" 
	d="
M149.038605,94.648483 
	C147.471268,95.481628 145.947311,95.968140 144.211670,96.727020 
	C143.554092,96.998344 143.108185,96.997299 142.371826,96.634476 
	C144.742874,93.997162 147.167374,91.333336 150.118408,89.532166 
	C155.239883,86.406281 160.686996,83.813934 165.997559,80.997864 
	C166.111679,81.314095 166.303329,81.572914 166.788147,81.889420 
	C165.920837,82.742020 164.835327,83.475861 163.755325,84.217690 
	C158.863373,87.577843 153.972946,90.940254 149.038605,94.648483 
z"/>
<path fill="#C99CB1" opacity="1.000000" stroke="none" 
	d="
M147.989334,107.001808 
	C148.158478,107.001953 148.327606,107.002106 148.750519,107.003265 
	C149.003021,108.391525 149.001755,109.778778 149.001465,111.582260 
	C147.895584,112.308044 146.788727,112.617615 144.931732,112.963623 
	C142.123489,112.663078 140.065414,112.326088 138.017029,111.604263 
	C139.602127,110.148895 141.067215,108.822121 142.785095,108.082695 
	C144.379532,107.396423 146.243851,107.337151 147.989334,107.001808 
z"/>
<path fill="#CCAAB3" opacity="1.000000" stroke="none" 
	d="
M138.007324,111.989090 
	C140.065414,112.326088 142.123489,112.663078 144.586517,112.999733 
	C144.928635,113.833366 144.865814,114.667336 144.900024,115.749863 
	C143.576706,116.328346 142.156372,116.658272 140.367401,116.995468 
	C138.934631,117.004944 137.870468,117.007141 136.391235,116.750259 
	C135.758194,116.035233 135.540253,115.579292 135.322327,115.123352 
	C135.279022,114.946938 135.235703,114.770515 135.326996,114.129860 
	C135.681580,113.115433 135.901550,112.565239 136.435532,112.011276 
	C137.168808,112.001373 137.588074,111.995232 138.007324,111.989090 
z"/>
<path fill="#8E8DC0" opacity="1.000000" stroke="none" 
	d="
M165.998260,80.623154 
	C160.686996,83.813934 155.239883,86.406281 150.118408,89.532166 
	C147.167374,91.333336 144.742874,93.997162 142.037415,96.631714 
	C137.674316,96.524490 138.289520,100.037262 137.239624,102.477371 
	C136.858932,102.304512 136.809830,102.128975 136.822891,101.513306 
	C136.900253,98.403297 136.915436,95.733406 137.313309,92.998611 
	C145.149399,91.399849 150.956512,87.478073 155.333328,80.969063 
	C156.775970,80.289658 157.888031,79.643326 159.363525,78.955818 
	C161.819077,78.274361 163.911194,77.634064 166.003326,76.993774 
	C166.003967,77.161484 166.004593,77.329193 166.007172,77.748444 
	C166.005753,78.749481 166.002350,79.498962 165.998260,80.623154 
z"/>
<path fill="#879CC7" opacity="1.000000" stroke="none" 
	d="
M166.141998,76.712143 
	C163.911194,77.634064 161.819077,78.274361 159.363464,78.539589 
	C158.999802,76.776794 158.999588,75.389069 159.109634,73.743469 
	C159.480530,72.989853 159.741180,72.494118 160.001831,71.998383 
	C162.063751,71.665581 164.125656,71.332794 166.593475,71.000000 
	C167.560883,71.508163 168.122391,72.016335 168.844559,72.763237 
	C168.097046,74.144829 167.188843,75.287674 166.141998,76.712143 
z"/>
<path fill="#3E7E92" opacity="1.000000" stroke="none" 
	d="
M130.996185,113.001579 
	C123.035080,118.709702 114.549080,123.294189 104.777481,125.034714 
	C101.666107,125.588905 98.518265,125.938377 95.123840,126.067917 
	C98.091293,122.328751 101.322021,118.903175 105.105881,115.410728 
	C107.594482,115.572037 109.681374,116.379074 111.437027,115.919815 
	C116.693489,114.544785 121.820389,112.674492 127.200264,111.248299 
	C128.600510,111.999908 129.798340,112.500748 130.996185,113.001579 
z"/>
<path fill="#3A7693" opacity="1.000000" stroke="none" 
	d="
M126.997864,110.997528 
	C121.820389,112.674492 116.693489,114.544785 111.437027,115.919815 
	C109.681374,116.379074 107.594482,115.572037 105.343292,115.178169 
	C105.735481,113.154099 106.443367,111.295723 107.699997,109.186996 
	C108.499062,108.955345 108.749382,108.974052 109.351250,108.928040 
	C113.135910,106.909851 116.569023,104.956390 120.379700,103.168472 
	C124.504433,103.558006 128.251602,103.781990 131.959930,104.349838 
	C130.280014,106.794968 128.638947,108.896248 126.997864,110.997528 
z"/>
<path fill="#38719B" opacity="1.000000" stroke="none" 
	d="
M98.648560,65.074234 
	C99.198494,69.016212 101.806274,68.729874 104.645348,68.260017 
	C106.522179,67.949409 108.439590,67.884087 110.627213,68.216194 
	C110.943062,70.813622 110.970535,72.903816 110.588356,74.984573 
	C108.236473,74.649170 106.295235,74.077400 104.351692,74.069420 
	C102.566475,74.062073 100.778770,74.662109 98.604485,74.994370 
	C96.512199,75.225319 94.807579,75.456459 93.102966,75.687592 
	C90.944649,74.883247 88.786339,74.078911 86.332031,73.089180 
	C86.930099,72.571381 87.798645,72.092773 88.722580,71.931549 
	C93.008240,71.183746 96.831734,69.847420 98.648560,65.074234 
z"/>
<path fill="#31658B" opacity="1.000000" stroke="none" 
	d="
M93.380356,75.890366 
	C94.807579,75.456459 96.512199,75.225319 98.810173,75.266327 
	C101.410240,77.735718 103.416939,79.932961 105.801781,82.544243 
	C110.675697,81.961624 111.226952,82.557922 111.080864,88.223114 
	C111.031433,90.140259 111.675613,92.075279 111.963165,94.340057 
	C110.951195,95.456612 109.978897,96.235252 108.803223,97.005051 
	C108.599854,96.996208 108.193092,96.987625 108.193092,96.987625 
	C106.598785,87.761353 101.250374,81.146645 93.380356,75.890366 
z"/>
<path fill="#2F6B91" opacity="1.000000" stroke="none" 
	d="
M109.006592,97.013893 
	C109.978897,96.235252 110.951195,95.456612 112.327309,94.344681 
	C115.154488,95.341026 117.577850,96.670662 120.001114,98.417122 
	C120.001381,100.223602 120.001755,101.613258 120.002136,103.002930 
	C116.569023,104.956390 113.135910,106.909851 109.351105,108.532211 
	C108.997353,107.144814 108.995277,106.088524 108.932236,104.834000 
	C108.753426,104.374641 108.570099,104.173080 108.321266,104.031113 
	C108.313675,103.570114 108.306076,103.109108 108.659393,102.253342 
	C109.032364,101.228683 109.044418,100.598785 109.040054,99.599884 
	C109.017952,98.491890 109.012276,97.752892 109.006592,97.013893 
z"/>
<path fill="#31658B" opacity="1.000000" stroke="none" 
	d="
M109.056473,99.968887 
	C109.044418,100.598785 109.032364,101.228683 108.778488,101.926239 
	C108.464325,101.558754 108.391975,101.123611 108.540894,100.354782 
	C108.762161,100.021095 109.056480,99.968887 109.056473,99.968887 
z"/>
<path fill="#31658B" opacity="1.000000" stroke="none" 
	d="
M108.993210,105.032227 
	C108.995277,106.088524 108.997353,107.144814 108.999565,108.596931 
	C108.749382,108.974052 108.499062,108.955345 107.872337,108.907898 
	C107.674744,107.845795 107.853539,106.812439 108.321198,105.401779 
	C108.610069,105.024467 108.993210,105.032227 108.993210,105.032227 
z"/>
<path fill="#3A7693" opacity="1.000000" stroke="none" 
	d="
M109.040054,99.599884 
	C109.056480,99.968887 108.762161,100.021095 108.613144,100.028229 
	C108.337288,99.275848 108.210449,98.516342 108.138351,97.372223 
	C108.193092,96.987625 108.599854,96.996208 108.803223,97.005051 
	C109.012276,97.752892 109.017952,98.491890 109.040054,99.599884 
z"/>
<path fill="#428595" opacity="1.000000" stroke="none" 
	d="
M71.007828,128.521927 
	C70.592255,128.655838 69.985680,128.547470 69.203537,128.169815 
	C69.624245,128.026901 70.220535,128.153290 71.007828,128.521927 
z"/>
<path fill="#3A7693" opacity="1.000000" stroke="none" 
	d="
M108.932236,104.834000 
	C108.993210,105.032227 108.610069,105.024467 108.418503,105.021027 
	C108.200333,104.849121 108.173737,104.680649 108.234207,104.271652 
	C108.570099,104.173080 108.753426,104.374641 108.932236,104.834000 
z"/>
<path fill="#427A98" opacity="1.000000" stroke="none" 
	d="
M127.200272,111.248299 
	C128.638947,108.896248 130.280014,106.794968 132.259918,104.196915 
	C133.986069,103.117905 135.373398,102.535667 136.760712,101.953438 
	C136.809830,102.128975 136.858932,102.304512 136.985825,102.742287 
	C137.019409,104.069481 136.975204,105.134430 136.787750,106.927383 
	C136.470169,109.108604 136.295837,110.561829 136.121506,112.015045 
	C135.901550,112.565239 135.681580,113.115433 135.244659,113.870110 
	C134.750473,113.942627 134.473221,113.810661 134.092072,113.840584 
	C133.202957,113.686798 132.417725,113.371132 131.314346,113.028519 
	C129.798340,112.500748 128.600510,111.999908 127.200272,111.248299 
z"/>
<path fill="#BFBBB5" opacity="1.000000" stroke="none" 
	d="
M135.175293,115.454895 
	C135.540253,115.579292 135.758194,116.035233 135.992188,116.755524 
	C135.541306,117.914879 135.074371,118.809875 134.325928,119.846901 
	C134.372345,118.588104 134.700302,117.187271 135.175293,115.454895 
z"/>
<path fill="#BFBBB5" opacity="1.000000" stroke="none" 
	d="
M133.649231,121.046539 
	C133.503906,122.166176 133.106186,123.506569 132.343445,124.913147 
	C132.451248,123.741989 132.924057,122.504639 133.649231,121.046539 
z"/>
<path fill="#316FA2" opacity="1.000000" stroke="none" 
	d="
M110.998001,74.994003 
	C110.970535,72.903816 110.943062,70.813622 110.958099,68.361870 
	C113.950890,67.739090 116.906128,67.251366 119.849289,67.315689 
	C121.244667,67.346191 122.659126,68.352600 123.986183,69.063843 
	C125.015930,69.615730 125.923492,70.395592 127.319695,70.978165 
	C128.476822,71.600243 129.199631,72.318298 129.965500,73.357903 
	C130.334122,74.479805 130.659683,75.280151 130.770203,76.293884 
	C127.485008,74.521385 124.412460,70.121635 121.355499,76.605896 
	C121.162125,77.016075 119.812790,76.881271 118.616806,76.992065 
	C115.820923,76.320755 113.409462,75.657379 110.998001,74.994003 
z"/>
<path fill="#909BC9" opacity="1.000000" stroke="none" 
	d="
M141.625702,59.999306 
	C142.814224,60.584625 143.627228,61.170498 144.722260,61.880226 
	C144.432281,63.140678 143.860306,64.277283 142.733078,65.706345 
	C140.410599,66.352135 138.656891,66.814751 136.873230,67.035110 
	C133.565140,67.443779 130.239578,67.710930 126.921280,68.037010 
	C126.272461,67.254890 125.623642,66.472771 124.897308,65.387619 
	C130.907303,68.101845 134.197678,62.644314 138.795624,60.270477 
	C139.748077,60.001759 140.499146,60.000809 141.625702,59.999306 
z"/>
<path fill="#8297C8" opacity="1.000000" stroke="none" 
	d="
M126.949867,68.358849 
	C130.239578,67.710930 133.565140,67.443779 136.873230,67.035110 
	C138.656891,66.814751 140.410599,66.352135 142.586777,65.997879 
	C142.996872,66.164635 142.998032,66.332314 142.856537,67.039375 
	C141.476746,69.051735 140.239594,70.524712 138.682861,72.163971 
	C135.549667,72.565620 132.736053,72.800980 129.922424,73.036346 
	C129.199631,72.318298 128.476822,71.600243 127.485107,70.726929 
	C127.136940,69.941330 127.057701,69.311012 126.949867,68.358849 
z"/>
<path fill="#7B9FCB" opacity="1.000000" stroke="none" 
	d="
M139.002441,71.997696 
	C140.239594,70.524712 141.476746,69.051735 142.857605,67.290901 
	C144.781906,66.911438 146.687561,67.198151 148.320099,66.658562 
	C153.603378,64.912323 156.928787,67.566978 159.958038,71.647812 
	C159.741180,72.494118 159.480530,72.989853 158.731354,73.790016 
	C156.496231,74.396736 154.749634,74.699036 152.680969,74.834526 
	C148.498611,70.816933 143.577850,72.271111 139.002441,71.997696 
z"/>
<path fill="#BC97B3" opacity="1.000000" stroke="none" 
	d="
M136.435532,112.011276 
	C136.295837,110.561829 136.470169,109.108604 136.818405,107.326111 
	C137.315048,106.528984 137.637787,106.061134 137.992523,105.297226 
	C141.404221,104.675270 144.783905,104.349365 148.577057,104.012543 
	C148.677628,104.789597 148.364746,105.577560 148.020599,106.683670 
	C146.243851,107.337151 144.379532,107.396423 142.785095,108.082695 
	C141.067215,108.822121 139.602127,110.148895 138.017029,111.604263 
	C137.588074,111.995232 137.168808,112.001373 136.435532,112.011276 
z"/>
<path fill="#33709B" opacity="1.000000" stroke="none" 
	d="
M136.822891,101.513306 
	C135.373398,102.535667 133.986069,103.117905 132.298767,103.853058 
	C128.251602,103.781990 124.504433,103.558006 120.379700,103.168472 
	C120.001755,101.613258 120.001381,100.223602 120.367416,98.411087 
	C122.489563,95.992462 124.245308,93.996689 126.357727,92.041138 
	C129.801071,92.451820 132.467773,96.976944 136.223053,93.035263 
	C136.454178,93.051353 136.916336,93.082436 136.934998,93.085373 
	C136.953674,93.088310 136.930603,93.063522 136.930603,93.063522 
	C136.915436,95.733406 136.900253,98.403297 136.822891,101.513306 
z"/>
<path fill="#808DC3" opacity="1.000000" stroke="none" 
	d="
M155.002747,81.002136 
	C150.956512,87.478073 145.149399,91.399849 137.313309,92.998611 
	C136.930603,93.063522 136.953674,93.088310 136.965149,92.676674 
	C136.834061,89.523430 138.164459,88.684807 140.801483,87.763657 
	C143.835419,86.703850 146.293198,83.994652 149.259094,81.891617 
	C150.012527,81.520439 150.508087,81.259491 151.403519,80.999046 
	C152.869827,81.000412 153.936295,81.001274 155.002747,81.002136 
z"/>
<path fill="#8096C7" opacity="1.000000" stroke="none" 
	d="
M155.333328,80.969063 
	C153.936295,81.001274 152.869827,81.000412 151.441406,80.646805 
	C151.720642,78.529808 152.361847,76.765572 153.003052,75.001335 
	C154.749634,74.699036 156.496231,74.396736 158.621094,74.047882 
	C158.999588,75.389069 158.999802,76.776794 159.000046,78.580757 
	C157.888031,79.643326 156.775970,80.289658 155.333328,80.969063 
z"/>
<path fill="#2B6997" opacity="1.000000" stroke="none" 
	d="
M126.001053,92.000916 
	C124.245308,93.996689 122.489563,95.992462 120.367523,97.994270 
	C117.577850,96.670662 115.154488,95.341026 112.366974,94.006760 
	C111.675613,92.075279 111.031433,90.140259 111.080864,88.223114 
	C111.226952,82.557922 110.675697,81.961624 105.801781,82.544243 
	C103.416939,79.932961 101.410240,77.735718 99.197845,75.266510 
	C100.778770,74.662109 102.566475,74.062073 104.351692,74.069420 
	C106.295235,74.077400 108.236473,74.649170 110.588356,74.984573 
	C113.409462,75.657379 115.820923,76.320755 118.661140,77.362801 
	C121.393616,82.494621 123.697334,87.247772 126.001053,92.000916 
z"/>
<path fill="#2C6EA3" opacity="1.000000" stroke="none" 
	d="
M126.357727,92.041138 
	C123.697334,87.247772 121.393616,82.494621 119.045563,77.370735 
	C119.812790,76.881271 121.162125,77.016075 121.355499,76.605896 
	C124.412460,70.121635 127.485008,74.521385 130.970444,76.300705 
	C131.385712,76.094131 131.786163,76.100159 131.845078,76.477310 
	C132.951797,80.855820 133.999603,84.857178 135.116821,89.087036 
	C135.336578,89.608231 135.560913,89.823929 135.897644,90.343277 
	C135.954681,91.489006 135.973312,92.254082 135.991943,93.019165 
	C132.467773,96.976944 129.801071,92.451820 126.357727,92.041138 
z"/>
<path fill="#7497CA" opacity="1.000000" stroke="none" 
	d="
M131.786163,76.100159 
	C131.786163,76.100159 131.385712,76.094131 131.185486,76.087311 
	C130.659683,75.280151 130.334122,74.479805 129.965500,73.357895 
	C132.736053,72.800980 135.549667,72.565620 138.682861,72.163979 
	C143.577850,72.271111 148.498611,70.816933 152.680969,74.834526 
	C152.361847,76.765572 151.720642,78.529808 151.041565,80.646301 
	C150.508087,81.259491 150.012527,81.520439 149.213669,81.529556 
	C146.795456,76.776184 142.659912,77.181122 138.704376,76.974609 
	C136.389404,76.853745 134.091660,76.402679 131.786163,76.100159 
z"/>
<path fill="#6E91C7" opacity="1.000000" stroke="none" 
	d="
M131.845078,76.477310 
	C134.091660,76.402679 136.389404,76.853745 138.704376,76.974609 
	C142.659912,77.181122 146.795456,76.776184 148.955811,81.639771 
	C146.293198,83.994652 143.835419,86.703850 140.801483,87.763657 
	C138.164459,88.684807 136.834061,89.523430 136.946472,92.673737 
	C136.916336,93.082436 136.454178,93.051353 136.223053,93.035263 
	C135.973312,92.254082 135.954681,91.489006 135.836960,90.113861 
	C135.578461,89.213089 135.348297,88.998001 135.047409,88.858543 
	C133.999603,84.857178 132.951797,80.855820 131.845078,76.477310 
z"/>
<path fill="#33709B" opacity="1.000000" stroke="none" 
	d="
M135.116821,89.087036 
	C135.348297,88.998001 135.578461,89.213089 135.798553,89.733215 
	C135.560913,89.823929 135.336578,89.608231 135.116821,89.087036 
z"/>
</svg>